# Blender 5.0.1
# www.blender.org
mtllib Enemy.mtl
o 立方体
v 0.500000 -0.000362 -0.500000
v 0.500000 -0.000098 -0.500000
v 0.500000 -0.500000 0.500000
v 0.500000 0.500000 0.500000
v -0.500000 0.000221 -0.500000
v -0.500000 -0.000014 -0.500000
v -0.500000 -0.500000 0.500000
v -0.500000 0.500000 0.500000
v 0.500000 -0.500000 0.000000
v 0.500000 0.000000 -0.500000
v 0.500000 0.500000 0.000000
v 0.500000 0.000000 0.000009
v 0.000000 -0.500000 0.500000
v 0.000000 0.500000 0.500000
v -0.500000 0.000000 -0.000031
v -0.500000 -0.500000 0.000000
v -0.500000 0.500000 0.000000
v -0.500000 0.000000 -0.500000
v 0.000000 -0.000043 -0.500000
v 0.000000 -0.000001 -0.500000
v 0.000000 0.500000 0.000000
v 0.000000 -0.500000 0.000000
v 0.000000 0.000000 -0.500000
v -0.500000 0.000000 0.000000
v 0.000000 0.000000 -0.000013
v 0.500000 0.000000 0.000000
vn 1.0000 -0.0000 -0.0000
vn -0.0000 -0.7071 0.7071
vn -0.0000 -0.0000 1.0000
vn -0.0000 -0.7071 -0.7071
vn -0.0000 0.7071 -0.7071
vn -0.0000 1.0000 -0.0000
vn -0.0000 -0.7074 -0.7069
vn -0.0000 -1.0000 -0.0000
vn -0.0000 -0.0000 -1.0000
vn 1.0000 -0.0000 -0.0002
vn -1.0000 -0.0000 -0.0000
vn -0.0000 0.7071 0.7071
vn -0.0004 -0.7070 -0.7073
vn 0.0001 0.7070 -0.7072
vn -0.0005 -0.7071 -0.7071
vt 0.625000 0.125000
vt 0.500000 0.250000
vt 0.500000 0.125000
vt 0.500000 0.375000
vt 0.625000 0.500000
vt 0.500000 0.500000
vt 0.500000 0.625000
vt 0.625000 0.750000
vt 0.500000 0.750000
vt 0.625000 0.875000
vt 0.500000 1.000000
vt 0.500000 0.875000
vt 0.375000 0.625000
vt 0.250000 0.750000
vt 0.250000 0.625000
vt 0.875000 0.625000
vt 0.750000 0.750000
vt 0.750000 0.625000
vt 0.625000 0.625000
vt 0.750000 0.500000
vt 0.875000 0.500000
vt 0.125000 0.750000
vt 0.125000 0.625000
vt 0.250000 0.500000
vt 0.125000 0.500000
vt 0.375000 0.500000
vt 0.375000 1.000000
vt 0.375000 0.875000
vt 0.375000 0.750000
vt 0.375000 0.375000
vt 0.375000 0.250000
vt 0.625000 0.375000
vt 0.375000 0.125000
vt 0.375000 0.000000
vt 0.500000 0.000000
vt 0.625000 0.250000
vt 0.625000 1.000000
vt 0.875000 0.750000
vt 0.625000 0.000000
s 0
usemtl マテリアル.002
f 11/1/1 12/2/1 26/3/1
f 25/4/2 8/5/2 15/6/2
f 24/7/1 6/8/1 18/9/1
f 20/10/3 10/11/3 23/12/3
f 16/13/4 19/14/4 22/15/4
f 11/16/5 20/17/5 21/18/5
f 17/19/5 20/17/5 6/8/5
f 14/20/6 17/19/6 8/5/6
f 4/21/6 21/18/6 14/20/6
f 22/15/7 1/22/7 9/23/7
f 13/24/8 9/23/8 3/25/8
f 7/26/8 22/15/8 13/24/8
f 23/12/9 1/27/9 19/28/9
f 5/29/9 23/12/9 19/28/9
f 6/8/3 23/12/3 18/9/3
f 16/13/10 18/9/10 5/29/10
f 7/26/11 24/7/11 16/13/11
f 15/6/1 17/19/1 24/7/1
f 25/4/12 7/26/12 13/30/12
f 12/2/12 13/30/12 3/31/12
f 12/2/2 14/32/2 25/4/2
f 9/33/1 12/2/1 3/31/1
f 1/34/1 26/3/1 9/33/1
f 10/35/1 11/1/1 26/3/1
f 11/1/1 4/36/1 12/2/1
f 25/4/2 14/32/2 8/5/2
f 24/7/11 17/19/11 6/8/11
f 20/10/3 2/37/3 10/11/3
f 16/13/13 5/29/13 19/14/13
f 11/16/14 2/38/14 20/17/14
f 17/19/5 21/18/5 20/17/5
f 14/20/6 21/18/6 17/19/6
f 4/21/6 11/16/6 21/18/6
f 22/15/15 19/14/15 1/22/15
f 13/24/8 22/15/8 9/23/8
f 7/26/8 16/13/8 22/15/8
f 23/12/9 10/11/9 1/27/9
f 5/29/3 18/9/3 23/12/3
f 6/8/3 20/10/3 23/12/3
f 16/13/11 24/7/11 18/9/11
f 7/26/1 15/6/1 24/7/1
f 15/6/11 8/5/11 17/19/11
f 25/4/12 15/6/12 7/26/12
f 12/2/12 25/4/12 13/30/12
f 12/2/2 4/36/2 14/32/2
f 9/33/1 26/3/1 12/2/1
f 1/34/1 10/35/1 26/3/1
f 10/35/11 2/39/11 11/1/11
