# Blender 5.0.1
# www.blender.org
mtllib deathParticles.mtl
o 球
v 0.000000 0.300000 0.000000
v 0.000000 0.249441 0.166671
v 0.000000 0.166671 0.249441
v 0.000000 0.058527 0.294236
v 0.000000 0.000000 0.300000
v 0.000000 -0.058527 0.294236
v 0.000000 -0.166671 0.249441
v 0.000000 -0.300000 0.000000
v -0.011418 0.294236 0.057403
v -0.022397 0.277164 0.112599
v -0.032516 0.249441 0.163469
v -0.041385 0.212132 0.208056
v -0.048664 0.166671 0.244648
v -0.054072 0.114805 0.271838
v -0.057403 0.058527 0.288582
v -0.058527 0.000000 0.294236
v -0.057403 -0.058527 0.288582
v -0.054072 -0.114805 0.271838
v -0.048664 -0.166671 0.244648
v -0.041385 -0.212132 0.208056
v -0.032516 -0.249441 0.163469
v -0.022397 -0.277164 0.112599
v -0.011418 -0.294236 0.057403
v -0.022397 0.294236 0.054072
v -0.043934 0.277164 0.106066
v -0.063782 0.249441 0.153984
v -0.081179 0.212132 0.195984
v -0.095457 0.166671 0.230453
v -0.106066 0.114805 0.256066
v -0.112599 0.058527 0.271838
v -0.114805 0.000000 0.277164
v -0.112599 -0.058527 0.271838
v -0.106066 -0.114805 0.256066
v -0.095457 -0.166671 0.230453
v -0.081179 -0.212132 0.195984
v -0.063782 -0.249441 0.153984
v -0.043934 -0.277164 0.106066
v -0.022397 -0.294236 0.054072
v -0.032516 0.294236 0.048664
v -0.063782 0.277164 0.095457
v -0.092597 0.249441 0.138582
v -0.117854 0.212132 0.176381
v -0.138582 0.166671 0.207402
v -0.153984 0.114805 0.230453
v -0.163469 0.058527 0.244648
v -0.166671 0.000000 0.249441
v -0.163469 -0.058527 0.244648
v -0.153984 -0.114805 0.230453
v -0.138582 -0.166671 0.207402
v -0.117854 -0.212132 0.176381
v -0.092597 -0.249441 0.138582
v -0.063782 -0.277164 0.095457
v -0.032516 -0.294236 0.048664
v -0.041385 0.294236 0.041385
v -0.081179 0.277164 0.081179
v -0.117854 0.249441 0.117854
v -0.150000 0.212132 0.150000
v -0.176381 0.166671 0.176381
v -0.195984 0.114805 0.195984
v -0.208056 0.058527 0.208056
v -0.212132 0.000000 0.212132
v -0.208056 -0.058527 0.208056
v -0.195984 -0.114805 0.195984
v -0.176381 -0.166671 0.176381
v -0.150000 -0.212132 0.150000
v -0.117854 -0.249441 0.117854
v -0.081179 -0.277164 0.081179
v -0.041385 -0.294236 0.041385
v -0.048664 0.294236 0.032516
v -0.095457 0.277164 0.063782
v -0.138582 0.249441 0.092597
v -0.176381 0.212132 0.117854
v -0.207402 0.166671 0.138582
v -0.230453 0.114805 0.153984
v -0.244648 0.058527 0.163469
v -0.249441 0.000000 0.166671
v -0.244648 -0.058527 0.163469
v -0.230453 -0.114805 0.153984
v -0.207402 -0.166671 0.138582
v -0.176381 -0.212132 0.117854
v -0.138582 -0.249441 0.092597
v -0.095457 -0.277164 0.063782
v -0.048664 -0.294236 0.032516
v -0.054072 0.294236 0.022397
v -0.106066 0.277164 0.043934
v -0.153984 0.249441 0.063782
v -0.195984 0.212132 0.081179
v -0.230453 0.166671 0.095457
v -0.256066 0.114805 0.106066
v -0.271838 0.058527 0.112599
v -0.277164 0.000000 0.114805
v -0.271838 -0.058527 0.112599
v -0.256066 -0.114805 0.106066
v -0.230453 -0.166671 0.095457
v -0.195984 -0.212132 0.081179
v -0.153984 -0.249441 0.063782
v -0.106066 -0.277164 0.043934
v -0.054072 -0.294236 0.022397
v -0.057403 0.294236 0.011418
v -0.112599 0.277164 0.022397
v -0.163469 0.249441 0.032516
v -0.208056 0.212132 0.041385
v -0.244648 0.166671 0.048663
v -0.271838 0.114805 0.054072
v -0.288582 0.058527 0.057402
v -0.294236 0.000000 0.058527
v -0.288582 -0.058527 0.057402
v -0.271838 -0.114805 0.054072
v -0.244648 -0.166671 0.048663
v -0.208056 -0.212132 0.041385
v -0.163469 -0.249441 0.032516
v -0.112599 -0.277164 0.022397
v -0.057403 -0.294236 0.011418
v -0.058527 0.294236 -0.000000
v -0.114805 0.277164 -0.000000
v -0.166671 0.249441 -0.000000
v -0.212132 0.212132 0.000000
v -0.249441 0.166671 -0.000000
v -0.277164 0.114805 0.000000
v -0.294236 0.058527 -0.000000
v -0.300000 0.000000 -0.000000
v -0.294236 -0.058527 -0.000000
v -0.277164 -0.114805 0.000000
v -0.249441 -0.166671 -0.000000
v -0.212132 -0.212132 0.000000
v -0.166671 -0.249441 -0.000000
v -0.114805 -0.277164 -0.000000
v -0.058527 -0.294236 -0.000000
v -0.057402 0.294236 -0.011418
v -0.112599 0.277164 -0.022397
v -0.163469 0.249441 -0.032516
v -0.208056 0.212132 -0.041385
v -0.244648 0.166671 -0.048664
v -0.271838 0.114805 -0.054072
v -0.288582 0.058527 -0.057403
v -0.294235 0.000000 -0.058527
v -0.288582 -0.058527 -0.057403
v -0.271838 -0.114805 -0.054072
v -0.244648 -0.166671 -0.048664
v -0.208056 -0.212132 -0.041385
v -0.163469 -0.249441 -0.032516
v -0.112599 -0.277164 -0.022397
v -0.057402 -0.294236 -0.011418
v -0.054072 0.294236 -0.022397
v -0.106066 0.277164 -0.043934
v -0.153984 0.249441 -0.063782
v -0.195984 0.212132 -0.081179
v -0.230453 0.166671 -0.095457
v -0.256066 0.114805 -0.106066
v -0.271838 0.058527 -0.112599
v -0.277164 0.000000 -0.114805
v -0.271838 -0.058527 -0.112599
v -0.256066 -0.114805 -0.106066
v -0.230453 -0.166671 -0.095457
v -0.195984 -0.212132 -0.081179
v -0.153984 -0.249441 -0.063782
v -0.106066 -0.277164 -0.043934
v -0.054072 -0.294236 -0.022397
v -0.048663 0.294236 -0.032516
v -0.095457 0.277164 -0.063782
v -0.138582 0.249441 -0.092597
v -0.176381 0.212132 -0.117854
v -0.207402 0.166671 -0.138582
v -0.230453 0.114805 -0.153984
v -0.244648 0.058527 -0.163469
v -0.249441 0.000000 -0.166671
v -0.244648 -0.058527 -0.163469
v -0.230453 -0.114805 -0.153984
v -0.207402 -0.166671 -0.138582
v -0.176381 -0.212132 -0.117854
v -0.138582 -0.249441 -0.092597
v -0.095457 -0.277164 -0.063782
v -0.048663 -0.294236 -0.032516
v -0.041385 0.294236 -0.041385
v -0.081179 0.277164 -0.081179
v -0.117854 0.249441 -0.117854
v -0.150000 0.212132 -0.150000
v -0.176381 0.166671 -0.176381
v -0.195984 0.114805 -0.195984
v -0.208056 0.058527 -0.208056
v -0.212132 0.000000 -0.212132
v -0.208056 -0.058527 -0.208056
v -0.195984 -0.114805 -0.195984
v -0.176381 -0.166671 -0.176381
v -0.150000 -0.212132 -0.150000
v -0.117854 -0.249441 -0.117854
v -0.081179 -0.277164 -0.081179
v -0.041385 -0.294236 -0.041385
v -0.032516 0.294236 -0.048663
v -0.063782 0.277164 -0.095457
v -0.092597 0.249441 -0.138582
v -0.117854 0.212132 -0.176381
v -0.138582 0.166671 -0.207402
v -0.153984 0.114805 -0.230453
v -0.163468 0.058527 -0.244648
v -0.166671 0.000000 -0.249441
v -0.163468 -0.058527 -0.244648
v -0.153984 -0.114805 -0.230453
v -0.138582 -0.166671 -0.207402
v -0.117854 -0.212132 -0.176381
v -0.092597 -0.249441 -0.138582
v -0.063782 -0.277164 -0.095457
v -0.032516 -0.294236 -0.048663
v -0.022397 0.294236 -0.054072
v -0.043934 0.277164 -0.106066
v -0.063782 0.249441 -0.153984
v -0.081179 0.212132 -0.195984
v -0.095457 0.166671 -0.230453
v -0.106066 0.114805 -0.256066
v -0.112599 0.058527 -0.271838
v -0.114805 0.000000 -0.277164
v -0.112599 -0.058527 -0.271838
v -0.106066 -0.114805 -0.256066
v -0.095457 -0.166671 -0.230453
v -0.081179 -0.212132 -0.195984
v -0.063782 -0.249441 -0.153984
v -0.043934 -0.277164 -0.106066
v -0.022397 -0.294236 -0.054072
v -0.011418 0.294236 -0.057402
v -0.022397 0.277164 -0.112599
v -0.032516 0.249441 -0.163468
v -0.041385 0.212132 -0.208056
v -0.048663 0.166671 -0.244648
v -0.054072 0.114805 -0.271838
v -0.057402 0.058527 -0.288582
v -0.058527 0.000000 -0.294235
v -0.057402 -0.058527 -0.288582
v -0.054072 -0.114805 -0.271838
v -0.048663 -0.166671 -0.244648
v -0.041385 -0.212132 -0.208056
v -0.032516 -0.249441 -0.163468
v -0.022397 -0.277164 -0.112599
v -0.011418 -0.294236 -0.057402
v 0.000000 0.294236 -0.058527
v 0.000000 0.277164 -0.114805
v 0.000000 0.249441 -0.166671
v 0.000000 0.212132 -0.212132
v 0.000000 0.166671 -0.249441
v -0.000000 0.114805 -0.277164
v 0.000000 0.058527 -0.294235
v 0.000000 0.000000 -0.300000
v 0.000000 -0.058527 -0.294235
v -0.000000 -0.114805 -0.277164
v 0.000000 -0.166671 -0.249441
v 0.000000 -0.212132 -0.212132
v 0.000000 -0.249441 -0.166671
v 0.000000 -0.277164 -0.114805
v 0.000000 -0.294236 -0.058527
v 0.011418 0.294236 -0.057402
v 0.022397 0.277164 -0.112599
v 0.032516 0.249441 -0.163468
v 0.041385 0.212132 -0.208056
v 0.048664 0.166671 -0.244648
v 0.054072 0.114805 -0.271838
v 0.057403 0.058527 -0.288582
v 0.058527 0.000000 -0.294235
v 0.057403 -0.058527 -0.288582
v 0.054072 -0.114805 -0.271838
v 0.048664 -0.166671 -0.244648
v 0.041385 -0.212132 -0.208056
v 0.032516 -0.249441 -0.163468
v 0.022397 -0.277164 -0.112599
v 0.011418 -0.294236 -0.057402
v 0.022397 0.294236 -0.054072
v 0.043934 0.277164 -0.106066
v 0.063782 0.249441 -0.153984
v 0.081179 0.212132 -0.195984
v 0.095457 0.166671 -0.230453
v 0.106066 0.114805 -0.256066
v 0.112599 0.058527 -0.271838
v 0.114805 0.000000 -0.277164
v 0.112599 -0.058527 -0.271838
v 0.106066 -0.114805 -0.256066
v 0.095457 -0.166671 -0.230453
v 0.081179 -0.212132 -0.195984
v 0.063782 -0.249441 -0.153984
v 0.043934 -0.277164 -0.106066
v 0.022397 -0.294236 -0.054072
v 0.032516 0.294236 -0.048663
v 0.063782 0.277164 -0.095457
v 0.092597 0.249441 -0.138582
v 0.117854 0.212132 -0.176381
v 0.138582 0.166671 -0.207402
v 0.153984 0.114805 -0.230453
v 0.163469 0.058527 -0.244648
v 0.166671 0.000000 -0.249441
v 0.163469 -0.058527 -0.244648
v 0.153984 -0.114805 -0.230453
v 0.138582 -0.166671 -0.207402
v 0.117854 -0.212132 -0.176381
v 0.092597 -0.249441 -0.138582
v 0.063782 -0.277164 -0.095457
v 0.032516 -0.294236 -0.048663
v 0.041385 0.294236 -0.041385
v 0.081179 0.277164 -0.081179
v 0.117854 0.249441 -0.117854
v 0.150000 0.212132 -0.150000
v 0.176381 0.166671 -0.176381
v 0.195984 0.114805 -0.195984
v 0.208056 0.058527 -0.208056
v 0.212132 0.000000 -0.212132
v 0.208056 -0.058527 -0.208056
v 0.195984 -0.114805 -0.195984
v 0.176381 -0.166671 -0.176381
v 0.150000 -0.212132 -0.150000
v 0.117854 -0.249441 -0.117854
v 0.081179 -0.277164 -0.081179
v 0.041385 -0.294236 -0.041385
v 0.048663 0.294236 -0.032516
v 0.095457 0.277164 -0.063782
v 0.138582 0.249441 -0.092597
v 0.176381 0.212132 -0.117854
v 0.207402 0.166671 -0.138582
v 0.230453 0.114805 -0.153984
v 0.244648 0.058527 -0.163468
v 0.249441 0.000000 -0.166671
v 0.244648 -0.058527 -0.163468
v 0.230453 -0.114805 -0.153984
v 0.207402 -0.166671 -0.138582
v 0.176381 -0.212132 -0.117854
v 0.138582 -0.249441 -0.092597
v 0.095457 -0.277164 -0.063782
v 0.048663 -0.294236 -0.032516
v 0.054072 0.294236 -0.022397
v 0.106066 0.277164 -0.043934
v 0.153984 0.249441 -0.063782
v 0.195984 0.212132 -0.081179
v 0.230453 0.166671 -0.095457
v 0.256066 0.114805 -0.106066
v 0.271838 0.058527 -0.112599
v 0.277164 0.000000 -0.114805
v 0.271838 -0.058527 -0.112599
v 0.256066 -0.114805 -0.106066
v 0.230453 -0.166671 -0.095457
v 0.195984 -0.212132 -0.081179
v 0.153984 -0.249441 -0.063782
v 0.106066 -0.277164 -0.043934
v 0.054072 -0.294236 -0.022397
v 0.057402 0.294236 -0.011418
v 0.112599 0.277164 -0.022397
v 0.163468 0.249441 -0.032516
v 0.208056 0.212132 -0.041385
v 0.244648 0.166671 -0.048663
v 0.271838 0.114805 -0.054072
v 0.288582 0.058527 -0.057402
v 0.294235 0.000000 -0.058527
v 0.288582 -0.058527 -0.057402
v 0.271838 -0.114805 -0.054072
v 0.244648 -0.166671 -0.048663
v 0.208056 -0.212132 -0.041385
v 0.163468 -0.249441 -0.032516
v 0.112599 -0.277164 -0.022397
v 0.057402 -0.294236 -0.011418
v 0.058527 0.294236 0.000000
v 0.114805 0.277164 0.000000
v 0.166671 0.249441 0.000000
v 0.212132 0.212132 0.000000
v 0.249441 0.166671 0.000000
v 0.277164 0.114805 0.000000
v 0.294235 0.058527 0.000000
v 0.300000 0.000000 0.000000
v 0.294235 -0.058527 0.000000
v 0.277164 -0.114805 0.000000
v 0.249441 -0.166671 0.000000
v 0.212132 -0.212132 0.000000
v 0.166671 -0.249441 0.000000
v 0.114805 -0.277164 0.000000
v 0.058527 -0.294236 0.000000
v 0.057402 0.294236 0.011418
v 0.112599 0.277164 0.022397
v 0.163468 0.249441 0.032516
v 0.208056 0.212132 0.041385
v 0.244648 0.166671 0.048664
v 0.271838 0.114805 0.054072
v 0.288582 0.058527 0.057403
v 0.294235 0.000000 0.058527
v 0.288582 -0.058527 0.057403
v 0.271838 -0.114805 0.054072
v 0.244648 -0.166671 0.048664
v 0.208056 -0.212132 0.041385
v 0.163468 -0.249441 0.032516
v 0.112599 -0.277164 0.022397
v 0.057402 -0.294236 0.011418
v 0.054072 0.294236 0.022397
v 0.106066 0.277164 0.043934
v 0.153984 0.249441 0.063782
v 0.195984 0.212132 0.081179
v 0.230453 0.166671 0.095457
v 0.256066 0.114805 0.106066
v 0.271838 0.058527 0.112599
v 0.277164 0.000000 0.114805
v 0.271838 -0.058527 0.112599
v 0.256066 -0.114805 0.106066
v 0.230453 -0.166671 0.095457
v 0.195984 -0.212132 0.081179
v 0.153984 -0.249441 0.063782
v 0.106066 -0.277164 0.043934
v 0.054072 -0.294236 0.022397
v 0.048663 0.294236 0.032516
v 0.095457 0.277164 0.063782
v 0.138582 0.249441 0.092597
v 0.176381 0.212132 0.117854
v 0.207402 0.166671 0.138582
v 0.230453 0.114805 0.153984
v 0.244648 0.058527 0.163469
v 0.249441 0.000000 0.166671
v 0.244648 -0.058527 0.163469
v 0.230453 -0.114805 0.153984
v 0.207402 -0.166671 0.138582
v 0.176381 -0.212132 0.117854
v 0.138582 -0.249441 0.092597
v 0.095457 -0.277164 0.063782
v 0.048663 -0.294236 0.032516
v 0.041385 0.294236 0.041385
v 0.081179 0.277164 0.081179
v 0.117854 0.249441 0.117854
v 0.150000 0.212132 0.150000
v 0.176381 0.166671 0.176381
v 0.195984 0.114805 0.195984
v 0.208056 0.058527 0.208056
v 0.212132 0.000000 0.212132
v 0.208056 -0.058527 0.208056
v 0.195984 -0.114805 0.195984
v 0.176381 -0.166671 0.176381
v 0.150000 -0.212132 0.150000
v 0.117854 -0.249441 0.117854
v 0.081179 -0.277164 0.081179
v 0.041385 -0.294236 0.041385
v 0.032516 0.294236 0.048663
v 0.063782 0.277164 0.095457
v 0.092597 0.249441 0.138582
v 0.117854 0.212132 0.176381
v 0.138582 0.166671 0.207402
v 0.153984 0.114805 0.230453
v 0.163468 0.058527 0.244648
v 0.166671 0.000000 0.249441
v 0.163468 -0.058527 0.244648
v 0.153984 -0.114805 0.230453
v 0.138582 -0.166671 0.207402
v 0.117854 -0.212132 0.176381
v 0.092597 -0.249441 0.138582
v 0.063782 -0.277164 0.095457
v 0.032516 -0.294236 0.048663
v 0.022397 0.294236 0.054072
v 0.043934 0.277164 0.106066
v 0.063782 0.249441 0.153984
v 0.081179 0.212132 0.195984
v 0.095457 0.166671 0.230453
v 0.106066 0.114805 0.256066
v 0.112599 0.058527 0.271838
v 0.114805 0.000000 0.277164
v 0.112599 -0.058527 0.271838
v 0.106066 -0.114805 0.256066
v 0.095457 -0.166671 0.230453
v 0.081179 -0.212132 0.195984
v 0.063782 -0.249441 0.153984
v 0.043934 -0.277164 0.106066
v 0.022397 -0.294236 0.054072
v 0.011418 0.294236 0.057402
v 0.022397 0.277164 0.112599
v 0.032516 0.249441 0.163468
v 0.041385 0.212132 0.208056
v 0.048663 0.166671 0.244648
v 0.054072 0.114805 0.271838
v 0.057402 0.058527 0.288582
v 0.058527 0.000000 0.294235
v 0.057402 -0.058527 0.288582
v 0.054072 -0.114805 0.271838
v 0.048663 -0.166671 0.244648
v 0.041385 -0.212132 0.208056
v 0.032516 -0.249441 0.163468
v 0.022397 -0.277164 0.112599
v 0.011418 -0.294236 0.057402
v -0.000000 0.294236 0.058527
v -0.000000 0.277164 0.114805
v -0.000000 0.212132 0.212132
v -0.000000 0.114805 0.277164
v -0.000000 -0.114805 0.277164
v -0.000000 -0.212132 0.212132
v -0.000000 -0.249441 0.166671
v -0.000000 -0.277164 0.114805
v -0.000000 -0.294236 0.058527
vn -0.0624 -0.7715 0.6332
vn -0.0865 0.4696 0.8786
vn -0.0464 -0.8810 0.4709
vn -0.0938 0.2890 0.9527
vn -0.0286 -0.9565 0.2902
vn -0.0975 0.0975 0.9904
vn -0.0097 0.9951 0.0980
vn -0.0097 -0.9951 0.0980
vn -0.0975 -0.0976 0.9904
vn -0.0286 0.9565 0.2902
vn -0.0938 -0.2890 0.9527
vn -0.0464 0.8810 0.4709
vn -0.0865 -0.4696 0.8786
vn -0.0624 0.7715 0.6332
vn -0.0759 -0.6326 0.7708
vn -0.0759 0.6326 0.7708
vn -0.2248 -0.6326 0.7412
vn -0.2248 0.6326 0.7412
vn -0.1847 -0.7715 0.6088
vn -0.2563 0.4696 0.8448
vn -0.1374 -0.8810 0.4528
vn -0.2779 0.2890 0.9161
vn -0.0846 -0.9565 0.2790
vn -0.2889 0.0976 0.9524
vn -0.0286 0.9951 0.0942
vn -0.0286 -0.9951 0.0942
vn -0.2889 -0.0976 0.9524
vn -0.0846 0.9565 0.2790
vn -0.2779 -0.2890 0.9161
vn -0.1374 0.8810 0.4528
vn -0.2563 -0.4696 0.8448
vn -0.1847 0.7715 0.6088
vn -0.0464 0.9951 0.0869
vn -0.0464 -0.9951 0.0869
vn -0.4691 -0.0975 0.8777
vn -0.1374 0.9565 0.2571
vn -0.4513 -0.2890 0.8443
vn -0.2231 0.8810 0.4173
vn -0.4162 -0.4696 0.7786
vn -0.2999 0.7715 0.5611
vn -0.3651 -0.6326 0.6831
vn -0.3651 0.6326 0.6831
vn -0.2999 -0.7715 0.5611
vn -0.4162 0.4696 0.7786
vn -0.2230 -0.8810 0.4173
vn -0.4513 0.2890 0.8443
vn -0.1374 -0.9565 0.2571
vn -0.4691 0.0975 0.8777
vn -0.4913 0.6326 0.5987
vn -0.4036 -0.7715 0.4918
vn -0.5601 0.4696 0.6825
vn -0.3002 -0.8810 0.3658
vn -0.6073 0.2890 0.7400
vn -0.1850 -0.9565 0.2254
vn -0.6314 0.0975 0.7693
vn -0.0625 0.9951 0.0761
vn -0.0625 -0.9951 0.0761
vn -0.6314 -0.0975 0.7693
vn -0.1850 0.9565 0.2254
vn -0.6073 -0.2890 0.7400
vn -0.3002 0.8810 0.3658
vn -0.5601 -0.4696 0.6825
vn -0.4036 0.7715 0.4918
vn -0.4913 -0.6326 0.5987
vn -0.7693 -0.0975 0.6314
vn -0.2254 0.9565 0.1850
vn -0.7400 -0.2890 0.6073
vn -0.3658 0.8810 0.3002
vn -0.6825 -0.4696 0.5601
vn -0.4918 0.7715 0.4036
vn -0.5987 -0.6326 0.4913
vn -0.5987 0.6326 0.4913
vn -0.4918 -0.7715 0.4036
vn -0.6825 0.4696 0.5601
vn -0.3658 -0.8810 0.3002
vn -0.7400 0.2890 0.6073
vn -0.2254 -0.9566 0.1850
vn -0.7693 0.0975 0.6314
vn -0.0761 0.9951 0.0625
vn -0.0761 -0.9951 0.0625
vn -0.5611 -0.7715 0.2999
vn -0.7786 0.4696 0.4162
vn -0.4173 -0.8810 0.2230
vn -0.8443 0.2890 0.4513
vn -0.2571 -0.9565 0.1374
vn -0.8777 0.0975 0.4691
vn -0.0869 0.9951 0.0464
vn -0.0869 -0.9951 0.0464
vn -0.8777 -0.0975 0.4691
vn -0.2571 0.9565 0.1374
vn -0.8443 -0.2890 0.4513
vn -0.4173 0.8810 0.2230
vn -0.7786 -0.4696 0.4162
vn -0.5611 0.7715 0.2999
vn -0.6831 -0.6326 0.3651
vn -0.6831 0.6326 0.3651
vn -0.9161 -0.2890 0.2779
vn -0.4528 0.8810 0.1374
vn -0.8448 -0.4696 0.2563
vn -0.6088 0.7715 0.1847
vn -0.7412 -0.6326 0.2248
vn -0.7412 0.6326 0.2248
vn -0.6088 -0.7715 0.1847
vn -0.8448 0.4696 0.2563
vn -0.4528 -0.8810 0.1374
vn -0.9161 0.2890 0.2779
vn -0.2790 -0.9565 0.0846
vn -0.9524 0.0975 0.2889
vn -0.0942 0.9951 0.0286
vn -0.0942 -0.9951 0.0286
vn -0.9524 -0.0975 0.2889
vn -0.2790 0.9565 0.0846
vn -0.4709 -0.8810 0.0464
vn -0.9527 0.2890 0.0938
vn -0.2902 -0.9565 0.0286
vn -0.9904 0.0975 0.0975
vn -0.0980 0.9951 0.0097
vn -0.0980 -0.9951 0.0097
vn -0.9904 -0.0975 0.0975
vn -0.2902 0.9565 0.0286
vn -0.9527 -0.2890 0.0938
vn -0.4709 0.8810 0.0464
vn -0.8786 -0.4696 0.0865
vn -0.6332 0.7715 0.0624
vn -0.7708 -0.6326 0.0759
vn -0.7708 0.6326 0.0759
vn -0.6332 -0.7715 0.0624
vn -0.8786 0.4696 0.0865
vn -0.4709 0.8810 -0.0464
vn -0.8786 -0.4696 -0.0865
vn -0.6332 0.7715 -0.0624
vn -0.7708 -0.6326 -0.0759
vn -0.7708 0.6326 -0.0759
vn -0.6332 -0.7715 -0.0624
vn -0.8786 0.4696 -0.0865
vn -0.4709 -0.8810 -0.0464
vn -0.9527 0.2890 -0.0938
vn -0.2902 -0.9565 -0.0286
vn -0.9904 0.0975 -0.0976
vn -0.0980 0.9951 -0.0097
vn -0.0980 -0.9951 -0.0097
vn -0.9904 -0.0975 -0.0976
vn -0.2902 0.9565 -0.0286
vn -0.9527 -0.2890 -0.0938
vn -0.9161 0.2890 -0.2779
vn -0.2790 -0.9565 -0.0846
vn -0.9524 0.0975 -0.2889
vn -0.0942 0.9951 -0.0286
vn -0.0942 -0.9951 -0.0286
vn -0.9524 -0.0975 -0.2889
vn -0.2790 0.9565 -0.0846
vn -0.9161 -0.2890 -0.2779
vn -0.4528 0.8810 -0.1374
vn -0.8448 -0.4696 -0.2563
vn -0.6088 0.7715 -0.1847
vn -0.7412 -0.6326 -0.2248
vn -0.7412 0.6326 -0.2248
vn -0.6088 -0.7715 -0.1847
vn -0.8448 0.4696 -0.2563
vn -0.4528 -0.8810 -0.1374
vn -0.7786 -0.4696 -0.4162
vn -0.5611 0.7715 -0.2999
vn -0.6831 -0.6326 -0.3651
vn -0.6831 0.6326 -0.3651
vn -0.5611 -0.7715 -0.2999
vn -0.7786 0.4696 -0.4162
vn -0.4173 -0.8810 -0.2230
vn -0.8443 0.2890 -0.4513
vn -0.2571 -0.9565 -0.1374
vn -0.8777 0.0975 -0.4691
vn -0.0869 0.9951 -0.0464
vn -0.0869 -0.9951 -0.0464
vn -0.8777 -0.0975 -0.4691
vn -0.2571 0.9565 -0.1374
vn -0.8443 -0.2890 -0.4513
vn -0.4173 0.8810 -0.2231
vn -0.2254 -0.9565 -0.1850
vn -0.7693 0.0975 -0.6314
vn -0.0761 0.9951 -0.0625
vn -0.0761 -0.9951 -0.0625
vn -0.7693 -0.0975 -0.6314
vn -0.2254 0.9565 -0.1850
vn -0.7400 -0.2890 -0.6073
vn -0.3658 0.8810 -0.3002
vn -0.6825 -0.4696 -0.5601
vn -0.4918 0.7715 -0.4036
vn -0.5987 -0.6326 -0.4913
vn -0.5987 0.6326 -0.4913
vn -0.4918 -0.7715 -0.4036
vn -0.6825 0.4696 -0.5601
vn -0.3658 -0.8810 -0.3002
vn -0.7400 0.2890 -0.6073
vn -0.4036 0.7715 -0.4918
vn -0.4913 -0.6326 -0.5987
vn -0.4913 0.6326 -0.5987
vn -0.4036 -0.7715 -0.4918
vn -0.5601 0.4696 -0.6825
vn -0.3002 -0.8810 -0.3658
vn -0.6073 0.2890 -0.7400
vn -0.1850 -0.9565 -0.2254
vn -0.6314 0.0975 -0.7693
vn -0.0625 0.9951 -0.0761
vn -0.0625 -0.9951 -0.0761
vn -0.6314 -0.0975 -0.7693
vn -0.1850 0.9565 -0.2254
vn -0.6073 -0.2890 -0.7400
vn -0.3002 0.8810 -0.3658
vn -0.5601 -0.4696 -0.6825
vn -0.4691 0.0975 -0.8777
vn -0.0464 0.9951 -0.0869
vn -0.0464 -0.9951 -0.0869
vn -0.4691 -0.0975 -0.8777
vn -0.1374 0.9565 -0.2571
vn -0.4513 -0.2890 -0.8443
vn -0.2230 0.8810 -0.4173
vn -0.4162 -0.4696 -0.7786
vn -0.2999 0.7715 -0.5611
vn -0.3651 -0.6326 -0.6831
vn -0.3651 0.6326 -0.6831
vn -0.2999 -0.7715 -0.5611
vn -0.4162 0.4696 -0.7786
vn -0.2230 -0.8810 -0.4173
vn -0.4513 0.2890 -0.8443
vn -0.1374 -0.9565 -0.2571
vn -0.2248 -0.6326 -0.7412
vn -0.2248 0.6326 -0.7412
vn -0.1847 -0.7715 -0.6088
vn -0.2563 0.4696 -0.8448
vn -0.1374 -0.8810 -0.4528
vn -0.2779 0.2890 -0.9161
vn -0.0846 -0.9565 -0.2790
vn -0.2889 0.0975 -0.9524
vn -0.0286 0.9951 -0.0942
vn -0.0286 -0.9951 -0.0942
vn -0.2889 -0.0975 -0.9524
vn -0.0846 0.9565 -0.2790
vn -0.2779 -0.2890 -0.9161
vn -0.1374 0.8810 -0.4528
vn -0.2563 -0.4696 -0.8448
vn -0.1847 0.7715 -0.6088
vn -0.0097 -0.9951 -0.0980
vn -0.0975 -0.0975 -0.9904
vn -0.0286 0.9565 -0.2902
vn -0.0938 -0.2890 -0.9527
vn -0.0464 0.8810 -0.4709
vn -0.0865 -0.4696 -0.8786
vn -0.0624 0.7715 -0.6332
vn -0.0759 -0.6326 -0.7708
vn -0.0759 0.6326 -0.7708
vn -0.0624 -0.7715 -0.6332
vn -0.0865 0.4696 -0.8786
vn -0.0464 -0.8810 -0.4709
vn -0.0938 0.2890 -0.9527
vn -0.0286 -0.9565 -0.2902
vn -0.0975 0.0975 -0.9904
vn -0.0097 0.9951 -0.0980
vn 0.0624 -0.7715 -0.6332
vn 0.0865 0.4696 -0.8786
vn 0.0464 -0.8810 -0.4709
vn 0.0938 0.2890 -0.9527
vn 0.0286 -0.9565 -0.2902
vn 0.0976 0.0975 -0.9904
vn 0.0097 0.9951 -0.0980
vn 0.0097 -0.9951 -0.0980
vn 0.0975 -0.0975 -0.9904
vn 0.0286 0.9565 -0.2902
vn 0.0938 -0.2890 -0.9527
vn 0.0464 0.8810 -0.4709
vn 0.0865 -0.4696 -0.8786
vn 0.0624 0.7715 -0.6332
vn 0.0759 -0.6326 -0.7708
vn 0.0759 0.6326 -0.7708
vn 0.0846 0.9565 -0.2790
vn 0.2779 -0.2890 -0.9161
vn 0.1374 0.8810 -0.4528
vn 0.2563 -0.4696 -0.8448
vn 0.1847 0.7715 -0.6088
vn 0.2248 -0.6326 -0.7412
vn 0.2248 0.6326 -0.7412
vn 0.1847 -0.7715 -0.6088
vn 0.2563 0.4696 -0.8448
vn 0.1374 -0.8810 -0.4528
vn 0.2779 0.2890 -0.9161
vn 0.0846 -0.9565 -0.2790
vn 0.2889 0.0975 -0.9524
vn 0.0286 0.9951 -0.0942
vn 0.0286 -0.9951 -0.0942
vn 0.2889 -0.0975 -0.9524
vn 0.4162 0.4696 -0.7786
vn 0.2230 -0.8810 -0.4173
vn 0.4513 0.2890 -0.8443
vn 0.1374 -0.9565 -0.2571
vn 0.4691 0.0975 -0.8777
vn 0.0464 0.9951 -0.0869
vn 0.0464 -0.9951 -0.0869
vn 0.4691 -0.0975 -0.8777
vn 0.1374 0.9565 -0.2571
vn 0.4513 -0.2890 -0.8443
vn 0.2230 0.8810 -0.4173
vn 0.4162 -0.4696 -0.7786
vn 0.2999 0.7715 -0.5611
vn 0.3651 -0.6326 -0.6831
vn 0.3651 0.6326 -0.6831
vn 0.2999 -0.7715 -0.5611
vn 0.6073 -0.2890 -0.7400
vn 0.3002 0.8810 -0.3658
vn 0.5601 -0.4696 -0.6825
vn 0.4036 0.7715 -0.4918
vn 0.4913 -0.6326 -0.5987
vn 0.4913 0.6326 -0.5987
vn 0.4036 -0.7715 -0.4918
vn 0.5601 0.4696 -0.6825
vn 0.3002 -0.8810 -0.3658
vn 0.6073 0.2890 -0.7400
vn 0.1850 -0.9565 -0.2254
vn 0.6314 0.0975 -0.7693
vn 0.0625 0.9951 -0.0761
vn 0.0625 -0.9951 -0.0761
vn 0.6314 -0.0975 -0.7693
vn 0.1850 0.9565 -0.2254
vn 0.3658 -0.8810 -0.3002
vn 0.7400 0.2890 -0.6073
vn 0.2254 -0.9566 -0.1850
vn 0.7693 0.0975 -0.6314
vn 0.0761 0.9951 -0.0625
vn 0.0761 -0.9951 -0.0625
vn 0.7693 -0.0975 -0.6314
vn 0.2254 0.9565 -0.1850
vn 0.7400 -0.2890 -0.6073
vn 0.3658 0.8810 -0.3002
vn 0.6825 -0.4696 -0.5601
vn 0.4918 0.7715 -0.4036
vn 0.5987 -0.6326 -0.4913
vn 0.5987 0.6326 -0.4913
vn 0.4918 -0.7715 -0.4036
vn 0.6825 0.4696 -0.5601
vn 0.4173 0.8810 -0.2230
vn 0.7786 -0.4696 -0.4162
vn 0.5611 0.7715 -0.2999
vn 0.6831 -0.6326 -0.3651
vn 0.6831 0.6326 -0.3651
vn 0.5611 -0.7715 -0.2999
vn 0.7786 0.4696 -0.4162
vn 0.4173 -0.8810 -0.2231
vn 0.8443 0.2890 -0.4513
vn 0.2571 -0.9565 -0.1374
vn 0.8777 0.0975 -0.4691
vn 0.0869 0.9951 -0.0464
vn 0.0869 -0.9951 -0.0464
vn 0.8777 -0.0975 -0.4691
vn 0.2571 0.9565 -0.1374
vn 0.8443 -0.2890 -0.4513
vn 0.9161 0.2890 -0.2779
vn 0.2790 -0.9565 -0.0846
vn 0.9524 0.0975 -0.2889
vn 0.0942 0.9951 -0.0286
vn 0.0942 -0.9951 -0.0286
vn 0.9524 -0.0975 -0.2889
vn 0.2790 0.9565 -0.0846
vn 0.9161 -0.2890 -0.2779
vn 0.4528 0.8810 -0.1374
vn 0.8448 -0.4696 -0.2563
vn 0.6088 0.7715 -0.1847
vn 0.7412 -0.6326 -0.2248
vn 0.7412 0.6326 -0.2248
vn 0.6088 -0.7715 -0.1847
vn 0.8448 0.4696 -0.2563
vn 0.4528 -0.8810 -0.1374
vn 0.8786 -0.4696 -0.0865
vn 0.6332 0.7715 -0.0624
vn 0.7708 -0.6326 -0.0759
vn 0.7708 0.6326 -0.0759
vn 0.6332 -0.7715 -0.0624
vn 0.8786 0.4696 -0.0865
vn 0.4709 -0.8810 -0.0464
vn 0.9527 0.2890 -0.0938
vn 0.2902 -0.9565 -0.0286
vn 0.9904 0.0975 -0.0975
vn 0.0980 0.9951 -0.0097
vn 0.0980 -0.9951 -0.0097
vn 0.9904 -0.0975 -0.0976
vn 0.2902 0.9565 -0.0286
vn 0.9527 -0.2890 -0.0938
vn 0.4709 0.8810 -0.0464
vn 0.2902 -0.9565 0.0286
vn 0.9904 0.0975 0.0975
vn 0.0980 0.9951 0.0097
vn 0.0980 -0.9951 0.0097
vn 0.9904 -0.0975 0.0976
vn 0.2902 0.9565 0.0286
vn 0.9527 -0.2890 0.0938
vn 0.4709 0.8810 0.0464
vn 0.8786 -0.4696 0.0865
vn 0.6332 0.7715 0.0624
vn 0.7708 -0.6326 0.0759
vn 0.7708 0.6326 0.0759
vn 0.6332 -0.7715 0.0624
vn 0.8786 0.4696 0.0865
vn 0.4709 -0.8810 0.0464
vn 0.9527 0.2890 0.0938
vn 0.7412 -0.6326 0.2248
vn 0.7412 0.6326 0.2248
vn 0.6088 -0.7715 0.1847
vn 0.8448 0.4696 0.2563
vn 0.4528 -0.8810 0.1374
vn 0.9161 0.2890 0.2779
vn 0.2790 -0.9565 0.0846
vn 0.9524 0.0975 0.2889
vn 0.0942 0.9951 0.0286
vn 0.0942 -0.9951 0.0286
vn 0.9524 -0.0975 0.2889
vn 0.2790 0.9565 0.0846
vn 0.9161 -0.2890 0.2779
vn 0.4528 0.8810 0.1374
vn 0.8448 -0.4696 0.2563
vn 0.6088 0.7715 0.1847
vn 0.0869 0.9951 0.0464
vn 0.0869 -0.9951 0.0464
vn 0.8777 -0.0975 0.4691
vn 0.2571 0.9565 0.1374
vn 0.8443 -0.2890 0.4513
vn 0.4173 0.8810 0.2231
vn 0.7786 -0.4696 0.4162
vn 0.5611 0.7715 0.2999
vn 0.6831 -0.6326 0.3651
vn 0.6831 0.6326 0.3651
vn 0.5611 -0.7715 0.2999
vn 0.7786 0.4696 0.4162
vn 0.4173 -0.8810 0.2231
vn 0.8443 0.2890 0.4513
vn 0.2571 -0.9565 0.1374
vn 0.8777 0.0975 0.4691
vn 0.5987 0.6326 0.4913
vn 0.4918 -0.7715 0.4036
vn 0.6825 0.4696 0.5601
vn 0.3658 -0.8810 0.3002
vn 0.7400 0.2890 0.6073
vn 0.2254 -0.9565 0.1850
vn 0.7693 0.0975 0.6314
vn 0.0761 0.9951 0.0625
vn 0.0761 -0.9951 0.0625
vn 0.7693 -0.0975 0.6314
vn 0.2254 0.9565 0.1850
vn 0.7400 -0.2890 0.6073
vn 0.3658 0.8810 0.3002
vn 0.6825 -0.4696 0.5601
vn 0.4918 0.7715 0.4036
vn 0.5987 -0.6326 0.4913
vn 0.6314 -0.0975 0.7693
vn 0.1850 0.9565 0.2254
vn 0.6073 -0.2890 0.7400
vn 0.3002 0.8810 0.3658
vn 0.5601 -0.4696 0.6825
vn 0.4036 0.7715 0.4918
vn 0.4913 -0.6326 0.5987
vn 0.4913 0.6326 0.5987
vn 0.4036 -0.7715 0.4918
vn 0.5601 0.4696 0.6825
vn 0.3002 -0.8810 0.3658
vn 0.6073 0.2890 0.7400
vn 0.1850 -0.9565 0.2254
vn 0.6314 0.0975 0.7693
vn 0.0625 0.9951 0.0761
vn 0.0625 -0.9951 0.0761
vn 0.2999 -0.7715 0.5611
vn 0.4162 0.4696 0.7786
vn 0.2230 -0.8810 0.4173
vn 0.4513 0.2890 0.8443
vn 0.1374 -0.9565 0.2571
vn 0.4691 0.0975 0.8777
vn 0.0464 0.9951 0.0869
vn 0.0464 -0.9951 0.0869
vn 0.4691 -0.0975 0.8777
vn 0.1374 0.9565 0.2571
vn 0.4513 -0.2890 0.8443
vn 0.2230 0.8810 0.4173
vn 0.4162 -0.4696 0.7786
vn 0.2999 0.7715 0.5611
vn 0.3651 -0.6326 0.6831
vn 0.3651 0.6326 0.6831
vn 0.0846 0.9565 0.2790
vn 0.2779 -0.2890 0.9161
vn 0.1374 0.8810 0.4528
vn 0.2563 -0.4696 0.8448
vn 0.1847 0.7715 0.6088
vn 0.2248 -0.6326 0.7412
vn 0.2248 0.6326 0.7412
vn 0.1847 -0.7715 0.6088
vn 0.2563 0.4696 0.8448
vn 0.1374 -0.8810 0.4528
vn 0.2779 0.2890 0.9161
vn 0.0846 -0.9565 0.2790
vn 0.2889 0.0975 0.9524
vn 0.0286 0.9951 0.0942
vn 0.0286 -0.9951 0.0942
vn 0.2889 -0.0975 0.9524
vn 0.0865 0.4696 0.8786
vn 0.0464 -0.8810 0.4709
vn 0.0938 0.2890 0.9527
vn 0.0286 -0.9565 0.2902
vn 0.0976 0.0975 0.9904
vn 0.0097 0.9951 0.0980
vn 0.0097 -0.9951 0.0980
vn 0.0976 -0.0975 0.9904
vn 0.0286 0.9565 0.2902
vn 0.0938 -0.2890 0.9527
vn 0.0464 0.8810 0.4709
vn 0.0865 -0.4696 0.8786
vn 0.0624 0.7715 0.6332
vn 0.0759 -0.6326 0.7708
vn 0.0759 0.6326 0.7708
vn 0.0624 -0.7715 0.6332
vn -0.0975 0.0976 0.9904
vn -0.0975 -0.0975 0.9904
vn -0.2230 0.8810 0.4173
vn -0.2231 -0.8810 0.4173
vn -0.2254 -0.9565 0.1850
vn -0.4173 -0.8810 -0.2231
vn -0.4173 0.8810 -0.2230
vn -0.2231 -0.8810 -0.4173
vn 0.0975 0.0975 -0.9904
vn 0.0976 -0.0975 -0.9904
vn 0.2231 -0.8810 -0.4173
vn 0.2231 0.8810 -0.4173
vn 0.2254 -0.9565 -0.1850
vn 0.4173 -0.8810 -0.2230
vn 0.9904 0.0975 -0.0976
vn 0.9904 -0.0975 -0.0975
vn 0.9904 0.0975 0.0976
vn 0.9904 -0.0975 0.0975
vt 0.750000 0.250000
vt 0.718750 0.187500
vt 0.750000 0.187500
vt 0.750000 0.625000
vt 0.718750 0.687500
vt 0.718750 0.625000
vt 0.718750 0.125000
vt 0.750000 0.125000
vt 0.750000 0.562500
vt 0.718750 0.562500
vt 0.718750 0.062500
vt 0.750000 0.062500
vt 0.718750 0.500000
vt 0.750000 0.500000
vt 0.750000 0.937500
vt 0.734375 1.000000
vt 0.718750 0.937500
vt 0.734375 0.000000
vt 0.718750 0.437500
vt 0.750000 0.437500
vt 0.750000 0.875000
vt 0.718750 0.875000
vt 0.718750 0.375000
vt 0.750000 0.375000
vt 0.750000 0.812500
vt 0.718750 0.812500
vt 0.718750 0.312500
vt 0.750000 0.312500
vt 0.750000 0.750000
vt 0.718750 0.750000
vt 0.718750 0.250000
vt 0.750000 0.687500
vt 0.687500 0.250000
vt 0.687500 0.687500
vt 0.687500 0.187500
vt 0.687500 0.625000
vt 0.687500 0.125000
vt 0.687500 0.562500
vt 0.687500 0.062500
vt 0.687500 0.500000
vt 0.703125 1.000000
vt 0.687500 0.937500
vt 0.703125 0.000000
vt 0.687500 0.437500
vt 0.687500 0.875000
vt 0.687500 0.375000
vt 0.687500 0.812500
vt 0.687500 0.312500
vt 0.687500 0.750000
vt 0.671875 1.000000
vt 0.656250 0.937500
vt 0.671875 0.000000
vt 0.656250 0.062500
vt 0.656250 0.500000
vt 0.656250 0.437500
vt 0.656250 0.875000
vt 0.656250 0.375000
vt 0.656250 0.812500
vt 0.656250 0.312500
vt 0.656250 0.750000
vt 0.656250 0.250000
vt 0.656250 0.687500
vt 0.656250 0.187500
vt 0.656250 0.625000
vt 0.656250 0.125000
vt 0.656250 0.562500
vt 0.625000 0.687500
vt 0.625000 0.187500
vt 0.625000 0.625000
vt 0.625000 0.125000
vt 0.625000 0.562500
vt 0.625000 0.062500
vt 0.625000 0.500000
vt 0.640625 1.000000
vt 0.625000 0.937500
vt 0.640625 0.000000
vt 0.625000 0.437500
vt 0.625000 0.875000
vt 0.625000 0.375000
vt 0.625000 0.812500
vt 0.625000 0.312500
vt 0.625000 0.750000
vt 0.625000 0.250000
vt 0.593750 0.437500
vt 0.593750 0.875000
vt 0.593750 0.375000
vt 0.593750 0.812500
vt 0.593750 0.312500
vt 0.593750 0.750000
vt 0.593750 0.250000
vt 0.593750 0.687500
vt 0.593750 0.187500
vt 0.593750 0.625000
vt 0.593750 0.125000
vt 0.593750 0.562500
vt 0.593750 0.062500
vt 0.593750 0.500000
vt 0.609375 1.000000
vt 0.593750 0.937500
vt 0.609375 0.000000
vt 0.562500 0.187500
vt 0.562500 0.625000
vt 0.562500 0.125000
vt 0.562500 0.562500
vt 0.562500 0.062500
vt 0.562500 0.500000
vt 0.578125 1.000000
vt 0.562500 0.937500
vt 0.578125 0.000000
vt 0.562500 0.437500
vt 0.562500 0.875000
vt 0.562500 0.375000
vt 0.562500 0.812500
vt 0.562500 0.312500
vt 0.562500 0.750000
vt 0.562500 0.250000
vt 0.562500 0.687500
vt 0.531250 0.375000
vt 0.531250 0.812500
vt 0.531250 0.312500
vt 0.531250 0.750000
vt 0.531250 0.250000
vt 0.531250 0.687500
vt 0.531250 0.187500
vt 0.531250 0.625000
vt 0.531250 0.125000
vt 0.531250 0.562500
vt 0.531250 0.062500
vt 0.531250 0.500000
vt 0.546875 1.000000
vt 0.531250 0.937500
vt 0.546875 0.000000
vt 0.531250 0.437500
vt 0.531250 0.875000
vt 0.500000 0.125000
vt 0.500000 0.625000
vt 0.500000 0.562500
vt 0.500000 0.062500
vt 0.500000 0.500000
vt 0.515625 1.000000
vt 0.500000 0.937500
vt 0.515625 0.000000
vt 0.500000 0.437500
vt 0.500000 0.875000
vt 0.500000 0.375000
vt 0.500000 0.812500
vt 0.500000 0.312500
vt 0.500000 0.750000
vt 0.500000 0.250000
vt 0.500000 0.687500
vt 0.500000 0.187500
vt 0.468750 0.812500
vt 0.468750 0.375000
vt 0.468750 0.312500
vt 0.468750 0.750000
vt 0.468750 0.250000
vt 0.468750 0.687500
vt 0.468750 0.187500
vt 0.468750 0.625000
vt 0.468750 0.125000
vt 0.468750 0.562500
vt 0.468750 0.062500
vt 0.468750 0.500000
vt 0.484375 1.000000
vt 0.468750 0.937500
vt 0.484375 0.000000
vt 0.468750 0.437500
vt 0.468750 0.875000
vt 0.437500 0.625000
vt 0.437500 0.562500
vt 0.437500 0.125000
vt 0.437500 0.062500
vt 0.437500 0.500000
vt 0.453125 1.000000
vt 0.437500 0.937500
vt 0.453125 0.000000
vt 0.437500 0.437500
vt 0.437500 0.875000
vt 0.437500 0.375000
vt 0.437500 0.812500
vt 0.437500 0.312500
vt 0.437500 0.750000
vt 0.437500 0.250000
vt 0.437500 0.687500
vt 0.437500 0.187500
vt 0.406250 0.375000
vt 0.406250 0.312500
vt 0.406250 0.750000
vt 0.406250 0.250000
vt 0.406250 0.687500
vt 0.406250 0.187500
vt 0.406250 0.625000
vt 0.406250 0.125000
vt 0.406250 0.562500
vt 0.406250 0.062500
vt 0.406250 0.500000
vt 0.421875 1.000000
vt 0.406250 0.937500
vt 0.421875 0.000000
vt 0.406250 0.437500
vt 0.406250 0.875000
vt 0.406250 0.812500
vt 0.375000 0.125000
vt 0.375000 0.062500
vt 0.375000 0.562500
vt 0.375000 0.500000
vt 0.390625 1.000000
vt 0.375000 0.937500
vt 0.390625 0.000000
vt 0.375000 0.437500
vt 0.375000 0.875000
vt 0.375000 0.375000
vt 0.375000 0.812500
vt 0.375000 0.312500
vt 0.375000 0.750000
vt 0.375000 0.250000
vt 0.375000 0.687500
vt 0.375000 0.187500
vt 0.375000 0.625000
vt 0.343750 0.750000
vt 0.343750 0.250000
vt 0.343750 0.687500
vt 0.343750 0.187500
vt 0.343750 0.625000
vt 0.343750 0.125000
vt 0.343750 0.562500
vt 0.343750 0.062500
vt 0.343750 0.500000
vt 0.359375 1.000000
vt 0.343750 0.937500
vt 0.359375 0.000000
vt 0.343750 0.437500
vt 0.343750 0.875000
vt 0.343750 0.375000
vt 0.343750 0.812500
vt 0.343750 0.312500
vt 0.312500 0.562500
vt 0.312500 0.500000
vt 0.328125 1.000000
vt 0.312500 0.937500
vt 0.328125 0.000000
vt 0.312500 0.062500
vt 0.312500 0.437500
vt 0.312500 0.875000
vt 0.312500 0.375000
vt 0.312500 0.812500
vt 0.312500 0.312500
vt 0.312500 0.750000
vt 0.312500 0.250000
vt 0.312500 0.687500
vt 0.312500 0.187500
vt 0.312500 0.625000
vt 0.312500 0.125000
vt 0.281250 0.250000
vt 0.281250 0.750000
vt 0.281250 0.687500
vt 0.281250 0.187500
vt 0.281250 0.625000
vt 0.281250 0.125000
vt 0.281250 0.562500
vt 0.281250 0.062500
vt 0.281250 0.500000
vt 0.296875 1.000000
vt 0.281250 0.937500
vt 0.296875 0.000000
vt 0.281250 0.437500
vt 0.281250 0.875000
vt 0.281250 0.375000
vt 0.281250 0.812500
vt 0.281250 0.312500
vt 0.265625 0.000000
vt 0.250000 0.062500
vt 0.250000 0.437500
vt 0.250000 0.875000
vt 0.250000 0.375000
vt 0.250000 0.812500
vt 0.250000 0.312500
vt 0.250000 0.750000
vt 0.250000 0.250000
vt 0.250000 0.687500
vt 0.250000 0.187500
vt 0.250000 0.625000
vt 0.250000 0.125000
vt 0.250000 0.562500
vt 0.250000 0.500000
vt 0.265625 1.000000
vt 0.250000 0.937500
vt 0.218750 0.250000
vt 0.218750 0.187500
vt 0.218750 0.625000
vt 0.218750 0.125000
vt 0.218750 0.562500
vt 0.218750 0.062500
vt 0.218750 0.500000
vt 0.234375 1.000000
vt 0.218750 0.937500
vt 0.234375 0.000000
vt 0.218750 0.437500
vt 0.218750 0.875000
vt 0.218750 0.375000
vt 0.218750 0.812500
vt 0.218750 0.312500
vt 0.218750 0.750000
vt 0.218750 0.687500
vt 0.187500 0.937500
vt 0.187500 0.875000
vt 0.187500 0.375000
vt 0.187500 0.812500
vt 0.187500 0.312500
vt 0.187500 0.750000
vt 0.187500 0.250000
vt 0.187500 0.687500
vt 0.187500 0.187500
vt 0.187500 0.625000
vt 0.187500 0.125000
vt 0.187500 0.562500
vt 0.187500 0.062500
vt 0.187500 0.500000
vt 0.203125 1.000000
vt 0.203125 0.000000
vt 0.187500 0.437500
vt 0.156250 0.625000
vt 0.156250 0.125000
vt 0.156250 0.562500
vt 0.156250 0.062500
vt 0.156250 0.500000
vt 0.171875 1.000000
vt 0.156250 0.937500
vt 0.171875 0.000000
vt 0.156250 0.437500
vt 0.156250 0.875000
vt 0.156250 0.375000
vt 0.156250 0.812500
vt 0.156250 0.312500
vt 0.156250 0.750000
vt 0.156250 0.250000
vt 0.156250 0.687500
vt 0.156250 0.187500
vt 0.125000 0.375000
vt 0.125000 0.812500
vt 0.125000 0.312500
vt 0.125000 0.750000
vt 0.125000 0.250000
vt 0.125000 0.687500
vt 0.125000 0.187500
vt 0.125000 0.625000
vt 0.125000 0.125000
vt 0.125000 0.562500
vt 0.125000 0.062500
vt 0.125000 0.500000
vt 0.140625 1.000000
vt 0.125000 0.937500
vt 0.140625 0.000000
vt 0.125000 0.437500
vt 0.125000 0.875000
vt 0.093750 0.125000
vt 0.093750 0.625000
vt 0.093750 0.562500
vt 0.093750 0.062500
vt 0.093750 0.500000
vt 0.109375 1.000000
vt 0.093750 0.937500
vt 0.109375 0.000000
vt 0.093750 0.437500
vt 0.093750 0.875000
vt 0.093750 0.375000
vt 0.093750 0.812500
vt 0.093750 0.312500
vt 0.093750 0.750000
vt 0.093750 0.250000
vt 0.093750 0.687500
vt 0.093750 0.187500
vt 0.062500 0.812500
vt 0.062500 0.375000
vt 0.062500 0.312500
vt 0.062500 0.750000
vt 0.062500 0.250000
vt 0.062500 0.687500
vt 0.062500 0.187500
vt 0.062500 0.625000
vt 0.062500 0.125000
vt 0.062500 0.562500
vt 0.062500 0.062500
vt 0.062500 0.500000
vt 0.078125 1.000000
vt 0.062500 0.937500
vt 0.078125 0.000000
vt 0.062500 0.437500
vt 0.062500 0.875000
vt 0.031250 0.625000
vt 0.031250 0.562500
vt 0.031250 0.062500
vt 0.031250 0.500000
vt 0.046875 1.000000
vt 0.031250 0.937500
vt 0.046875 0.000000
vt 0.031250 0.437500
vt 0.031250 0.875000
vt 0.031250 0.375000
vt 0.031250 0.812500
vt 0.031250 0.312500
vt 0.031250 0.750000
vt 0.031250 0.250000
vt 0.031250 0.687500
vt 0.031250 0.187500
vt 0.031250 0.125000
vt 0.000000 0.375000
vt 0.000000 0.312500
vt 0.000000 0.750000
vt 0.000000 0.250000
vt 0.000000 0.687500
vt 0.000000 0.187500
vt 0.000000 0.625000
vt 0.000000 0.125000
vt 0.000000 0.562500
vt 0.000000 0.062500
vt 0.000000 0.500000
vt 0.015625 1.000000
vt 0.000000 0.937500
vt 0.015625 0.000000
vt 0.000000 0.437500
vt 0.000000 0.875000
vt 0.000000 0.812500
vt 1.000000 0.125000
vt 0.968750 0.062500
vt 1.000000 0.062500
vt 1.000000 0.500000
vt 0.968750 0.562500
vt 0.968750 0.500000
vt 1.000000 0.937500
vt 0.984375 1.000000
vt 0.968750 0.937500
vt 0.984375 0.000000
vt 0.968750 0.437500
vt 1.000000 0.437500
vt 0.968750 0.875000
vt 1.000000 0.875000
vt 0.968750 0.375000
vt 1.000000 0.375000
vt 1.000000 0.812500
vt 0.968750 0.812500
vt 1.000000 0.312500
vt 0.968750 0.312500
vt 0.968750 0.750000
vt 1.000000 0.750000
vt 0.968750 0.250000
vt 1.000000 0.250000
vt 1.000000 0.687500
vt 0.968750 0.687500
vt 1.000000 0.187500
vt 0.968750 0.187500
vt 0.968750 0.625000
vt 1.000000 0.625000
vt 0.968750 0.125000
vt 1.000000 0.562500
vt 0.937500 0.250000
vt 0.937500 0.750000
vt 0.937500 0.687500
vt 0.937500 0.187500
vt 0.937500 0.625000
vt 0.937500 0.125000
vt 0.937500 0.562500
vt 0.937500 0.062500
vt 0.937500 0.500000
vt 0.953125 1.000000
vt 0.937500 0.937500
vt 0.953125 0.000000
vt 0.937500 0.437500
vt 0.937500 0.875000
vt 0.937500 0.375000
vt 0.937500 0.812500
vt 0.937500 0.312500
vt 0.921875 1.000000
vt 0.906250 0.937500
vt 0.921875 0.000000
vt 0.906250 0.062500
vt 0.906250 0.437500
vt 0.906250 0.875000
vt 0.906250 0.375000
vt 0.906250 0.812500
vt 0.906250 0.312500
vt 0.906250 0.750000
vt 0.906250 0.250000
vt 0.906250 0.687500
vt 0.906250 0.187500
vt 0.906250 0.625000
vt 0.906250 0.125000
vt 0.906250 0.562500
vt 0.906250 0.500000
vt 0.875000 0.750000
vt 0.875000 0.687500
vt 0.875000 0.250000
vt 0.875000 0.187500
vt 0.875000 0.625000
vt 0.875000 0.125000
vt 0.875000 0.562500
vt 0.875000 0.062500
vt 0.875000 0.500000
vt 0.890625 1.000000
vt 0.875000 0.937500
vt 0.890625 0.000000
vt 0.875000 0.437500
vt 0.875000 0.875000
vt 0.875000 0.375000
vt 0.875000 0.812500
vt 0.875000 0.312500
vt 0.843750 0.437500
vt 0.843750 0.875000
vt 0.843750 0.375000
vt 0.843750 0.812500
vt 0.843750 0.312500
vt 0.843750 0.750000
vt 0.843750 0.250000
vt 0.843750 0.687500
vt 0.843750 0.187500
vt 0.843750 0.625000
vt 0.843750 0.125000
vt 0.843750 0.562500
vt 0.843750 0.062500
vt 0.843750 0.500000
vt 0.859375 1.000000
vt 0.843750 0.937500
vt 0.859375 0.000000
vt 0.812500 0.250000
vt 0.812500 0.187500
vt 0.812500 0.625000
vt 0.812500 0.125000
vt 0.812500 0.562500
vt 0.812500 0.062500
vt 0.812500 0.500000
vt 0.828125 1.000000
vt 0.812500 0.937500
vt 0.828125 0.000000
vt 0.812500 0.437500
vt 0.812500 0.875000
vt 0.812500 0.375000
vt 0.812500 0.812500
vt 0.812500 0.312500
vt 0.812500 0.750000
vt 0.812500 0.687500
vt 0.781250 0.875000
vt 0.781250 0.375000
vt 0.781250 0.812500
vt 0.781250 0.312500
vt 0.781250 0.750000
vt 0.781250 0.250000
vt 0.781250 0.687500
vt 0.781250 0.187500
vt 0.781250 0.625000
vt 0.781250 0.125000
vt 0.781250 0.562500
vt 0.781250 0.062500
vt 0.781250 0.500000
vt 0.796875 1.000000
vt 0.781250 0.937500
vt 0.796875 0.000000
vt 0.781250 0.437500
vt 0.765625 1.000000
vt 0.765625 0.000000
s 0
usemtl マテリアル
f 479/1/1 21/2/1 480/3/1
f 477/4/2 13/5/2 14/6/2
f 480/3/3 22/7/3 481/8/3
f 4/9/4 14/6/4 15/10/4
f 481/8/5 23/11/5 482/12/5
f 4/9/6 16/13/6 5/14/6
f 474/15/7 1/16/7 9/17/7
f 8/18/8 482/12/8 23/11/8
f 5/14/9 17/19/9 6/20/9
f 475/21/10 9/17/10 10/22/10
f 6/20/11 18/23/11 478/24/11
f 2/25/12 10/22/12 11/26/12
f 478/24/13 19/27/13 7/28/13
f 476/29/14 11/26/14 12/30/14
f 7/28/15 20/31/15 479/1/15
f 3/32/16 12/30/16 13/5/16
f 19/27/17 35/33/17 20/31/17
f 12/30/18 28/34/18 13/5/18
f 21/2/19 35/33/19 36/35/19
f 13/5/20 29/36/20 14/6/20
f 22/7/21 36/35/21 37/37/21
f 15/10/22 29/36/22 30/38/22
f 22/7/23 38/39/23 23/11/23
f 15/10/24 31/40/24 16/13/24
f 9/17/25 1/41/25 24/42/25
f 8/43/26 23/11/26 38/39/26
f 16/13/27 32/44/27 17/19/27
f 9/17/28 25/45/28 10/22/28
f 17/19/29 33/46/29 18/23/29
f 10/22/30 26/47/30 11/26/30
f 18/23/31 34/48/31 19/27/31
f 11/26/32 27/49/32 12/30/32
f 24/42/33 1/50/33 39/51/33
f 8/52/34 38/39/34 53/53/34
f 32/44/35 46/54/35 47/55/35
f 24/42/36 40/56/36 25/45/36
f 32/44/37 48/57/37 33/46/37
f 25/45/38 41/58/38 26/47/38
f 34/48/39 48/57/39 49/59/39
f 26/47/40 42/60/40 27/49/40
f 35/33/41 49/59/41 50/61/41
f 27/49/42 43/62/42 28/34/42
f 36/35/43 50/61/43 51/63/43
f 28/34/44 44/64/44 29/36/44
f 36/35/45 52/65/45 37/37/45
f 29/36/46 45/66/46 30/38/46
f 37/37/47 53/53/47 38/39/47
f 30/38/48 46/54/48 31/40/48
f 42/60/49 58/67/49 43/62/49
f 50/61/50 66/68/50 51/63/50
f 43/62/51 59/69/51 44/64/51
f 51/63/52 67/70/52 52/65/52
f 45/66/53 59/69/53 60/71/53
f 52/65/54 68/72/54 53/53/54
f 46/54/55 60/71/55 61/73/55
f 39/51/56 1/74/56 54/75/56
f 8/76/57 53/53/57 68/72/57
f 46/54/58 62/77/58 47/55/58
f 39/51/59 55/78/59 40/56/59
f 47/55/60 63/79/60 48/57/60
f 40/56/61 56/80/61 41/58/61
f 49/59/62 63/79/62 64/81/62
f 41/58/63 57/82/63 42/60/63
f 49/59/64 65/83/64 50/61/64
f 61/73/65 77/84/65 62/77/65
f 54/75/66 70/85/66 55/78/66
f 62/77/67 78/86/67 63/79/67
f 55/78/68 71/87/68 56/80/68
f 64/81/69 78/86/69 79/88/69
f 56/80/70 72/89/70 57/82/70
f 64/81/71 80/90/71 65/83/71
f 58/67/72 72/89/72 73/91/72
f 65/83/73 81/92/73 66/68/73
f 58/67/74 74/93/74 59/69/74
f 67/70/75 81/92/75 82/94/75
f 60/71/76 74/93/76 75/95/76
f 67/70/77 83/96/77 68/72/77
f 61/73/78 75/95/78 76/97/78
f 54/75/79 1/98/79 69/99/79
f 8/100/80 68/72/80 83/96/80
f 80/90/81 96/101/81 81/92/81
f 73/91/82 89/102/82 74/93/82
f 81/92/83 97/103/83 82/94/83
f 75/95/84 89/102/84 90/104/84
f 83/96/85 97/103/85 98/105/85
f 76/97/86 90/104/86 91/106/86
f 69/99/87 1/107/87 84/108/87
f 8/109/88 83/96/88 98/105/88
f 76/97/89 92/110/89 77/84/89
f 69/99/90 85/111/90 70/85/90
f 77/84/91 93/112/91 78/86/91
f 70/85/92 86/113/92 71/87/92
f 79/88/93 93/112/93 94/114/93
f 71/87/94 87/115/94 72/89/94
f 79/88/95 95/116/95 80/90/95
f 73/91/96 87/115/96 88/117/96
f 92/110/97 108/118/97 93/112/97
f 85/111/98 101/119/98 86/113/98
f 94/114/99 108/118/99 109/120/99
f 86/113/100 102/121/100 87/115/100
f 94/114/101 110/122/101 95/116/101
f 88/117/102 102/121/102 103/123/102
f 96/101/103 110/122/103 111/124/103
f 88/117/104 104/125/104 89/102/104
f 97/103/105 111/124/105 112/126/105
f 90/104/106 104/125/106 105/127/106
f 97/103/107 113/128/107 98/105/107
f 91/106/108 105/127/108 106/129/108
f 84/108/109 1/130/109 99/131/109
f 8/132/110 98/105/110 113/128/110
f 91/106/111 107/133/111 92/110/111
f 85/111/112 99/131/112 100/134/112
f 111/124/113 127/135/113 112/126/113
f 105/127/114 119/136/114 120/137/114
f 112/126/115 128/138/115 113/128/115
f 106/129/116 120/137/116 121/139/116
f 99/131/117 1/140/117 114/141/117
f 8/142/118 113/128/118 128/138/118
f 106/129/119 122/143/119 107/133/119
f 100/134/120 114/141/120 115/144/120
f 107/133/121 123/145/121 108/118/121
f 100/134/122 116/146/122 101/119/122
f 109/120/123 123/145/123 124/147/123
f 101/119/124 117/148/124 102/121/124
f 109/120/125 125/149/125 110/122/125
f 103/123/126 117/148/126 118/150/126
f 111/124/127 125/149/127 126/151/127
f 103/123/128 119/136/128 104/125/128
f 115/144/129 131/152/129 116/146/129
f 124/147/130 138/153/130 139/154/130
f 116/146/131 132/155/131 117/148/131
f 124/147/132 140/156/132 125/149/132
f 118/150/133 132/155/133 133/157/133
f 126/151/134 140/156/134 141/158/134
f 118/150/135 134/159/135 119/136/135
f 126/151/136 142/160/136 127/135/136
f 120/137/137 134/159/137 135/161/137
f 127/135/138 143/162/138 128/138/138
f 121/139/139 135/161/139 136/163/139
f 114/141/140 1/164/140 129/165/140
f 8/166/141 128/138/141 143/162/141
f 121/139/142 137/167/142 122/143/142
f 114/141/143 130/168/143 115/144/143
f 122/143/144 138/153/144 123/145/144
f 135/161/145 149/169/145 150/170/145
f 143/162/146 157/171/146 158/172/146
f 136/163/147 150/170/147 151/173/147
f 129/165/148 1/174/148 144/175/148
f 8/176/149 143/162/149 158/172/149
f 136/163/150 152/177/150 137/167/150
f 129/165/151 145/178/151 130/168/151
f 137/167/152 153/179/152 138/153/152
f 131/152/153 145/178/153 146/180/153
f 139/154/154 153/179/154 154/181/154
f 131/152/155 147/182/155 132/155/155
f 139/154/156 155/183/156 140/156/156
f 133/157/157 147/182/157 148/184/157
f 141/158/158 155/183/158 156/185/158
f 133/157/159 149/169/159 134/159/159
f 141/158/160 157/171/160 142/160/160
f 154/181/161 168/186/161 169/187/161
f 146/180/162 162/188/162 147/182/162
f 154/181/163 170/189/163 155/183/163
f 148/184/164 162/188/164 163/190/164
f 156/185/165 170/189/165 171/191/165
f 148/184/166 164/192/166 149/169/166
f 156/185/167 172/193/167 157/171/167
f 150/170/168 164/192/168 165/194/168
f 157/171/169 173/195/169 158/172/169
f 151/173/170 165/194/170 166/196/170
f 144/175/171 1/197/171 159/198/171
f 8/199/172 158/172/172 173/195/172
f 151/173/173 167/200/173 152/177/173
f 144/175/174 160/201/174 145/178/174
f 152/177/175 168/186/175 153/179/175
f 146/180/176 160/201/176 161/202/176
f 173/195/177 187/203/177 188/204/177
f 166/196/178 180/205/178 181/206/178
f 159/198/179 1/207/179 174/208/179
f 8/209/180 173/195/180 188/204/180
f 166/196/181 182/210/181 167/200/181
f 159/198/182 175/211/182 160/201/182
f 167/200/183 183/212/183 168/186/183
f 160/201/184 176/213/184 161/202/184
f 169/187/185 183/212/185 184/214/185
f 161/202/186 177/215/186 162/188/186
f 169/187/187 185/216/187 170/189/187
f 163/190/188 177/215/188 178/217/188
f 170/189/189 186/218/189 171/191/189
f 163/190/190 179/219/190 164/192/190
f 172/193/191 186/218/191 187/203/191
f 165/194/192 179/219/192 180/205/192
f 176/213/193 192/220/193 177/215/193
f 184/214/194 200/221/194 185/216/194
f 178/217/195 192/220/195 193/222/195
f 186/218/196 200/221/196 201/223/196
f 178/217/197 194/224/197 179/219/197
f 186/218/198 202/225/198 187/203/198
f 180/205/199 194/224/199 195/226/199
f 187/203/200 203/227/200 188/204/200
f 181/206/201 195/226/201 196/228/201
f 174/208/202 1/229/202 189/230/202
f 8/231/203 188/204/203 203/227/203
f 181/206/204 197/232/204 182/210/204
f 175/211/205 189/230/205 190/233/205
f 182/210/206 198/234/206 183/212/206
f 176/213/207 190/233/207 191/235/207
f 184/214/208 198/234/208 199/236/208
f 196/228/209 210/237/209 211/238/209
f 189/230/210 1/239/210 204/240/210
f 8/241/211 203/227/211 218/242/211
f 196/228/212 212/243/212 197/232/212
f 189/230/213 205/244/213 190/233/213
f 197/232/214 213/245/214 198/234/214
f 190/233/215 206/246/215 191/235/215
f 199/236/216 213/245/216 214/247/216
f 191/235/217 207/248/217 192/220/217
f 199/236/218 215/249/218 200/221/218
f 193/222/219 207/248/219 208/250/219
f 201/223/220 215/249/220 216/251/220
f 193/222/221 209/252/221 194/224/221
f 201/223/222 217/253/222 202/225/222
f 195/226/223 209/252/223 210/237/223
f 202/225/224 218/242/224 203/227/224
f 214/247/225 230/254/225 215/249/225
f 208/250/226 222/255/226 223/256/226
f 216/251/227 230/254/227 231/257/227
f 208/250/228 224/258/228 209/252/228
f 216/251/229 232/259/229 217/253/229
f 210/237/230 224/258/230 225/260/230
f 217/253/231 233/261/231 218/242/231
f 211/238/232 225/260/232 226/262/232
f 204/240/233 1/263/233 219/264/233
f 8/265/234 218/242/234 233/261/234
f 211/238/235 227/266/235 212/243/235
f 204/240/236 220/267/236 205/244/236
f 212/243/237 228/268/237 213/245/237
f 205/244/238 221/269/238 206/246/238
f 214/247/239 228/268/239 229/270/239
f 206/246/240 222/255/240 207/248/240
f 8/271/241 233/261/241 248/272/241
f 226/262/242 242/273/242 227/266/242
f 219/264/243 235/274/243 220/267/243
f 227/266/244 243/275/244 228/268/244
f 221/269/245 235/274/245 236/276/245
f 229/270/246 243/275/246 244/277/246
f 221/269/247 237/278/247 222/255/247
f 229/270/248 245/279/248 230/254/248
f 223/256/249 237/278/249 238/280/249
f 231/257/250 245/279/250 246/281/250
f 223/256/251 239/282/251 224/258/251
f 231/257/252 247/283/252 232/259/252
f 225/260/253 239/282/253 240/284/253
f 233/261/254 247/283/254 248/272/254
f 226/262/255 240/284/255 241/285/255
f 219/264/256 1/286/256 234/287/256
f 246/281/257 260/288/257 261/289/257
f 238/280/258 254/290/258 239/282/258
f 246/281/259 262/291/259 247/283/259
f 240/284/260 254/290/260 255/292/260
f 247/283/261 263/293/261 248/272/261
f 241/285/262 255/292/262 256/294/262
f 234/287/263 1/295/263 249/296/263
f 8/297/264 248/272/264 263/293/264
f 241/285/265 257/298/265 242/273/265
f 234/287/266 250/299/266 235/274/266
f 242/273/267 258/300/267 243/275/267
f 235/274/268 251/301/268 236/276/268
f 244/277/269 258/300/269 259/302/269
f 236/276/270 252/303/270 237/278/270
f 244/277/271 260/288/271 245/279/271
f 238/280/272 252/303/272 253/304/272
f 250/299/273 264/305/273 265/306/273
f 257/298/274 273/307/274 258/300/274
f 250/299/275 266/308/275 251/301/275
f 259/302/276 273/307/276 274/309/276
f 251/301/277 267/310/277 252/303/277
f 259/302/278 275/311/278 260/288/278
f 253/304/279 267/310/279 268/312/279
f 261/289/280 275/311/280 276/313/280
f 253/304/281 269/314/281 254/290/281
f 261/289/282 277/315/282 262/291/282
f 255/292/283 269/314/283 270/316/283
f 262/291/284 278/317/284 263/293/284
f 256/294/285 270/316/285 271/318/285
f 249/296/286 1/319/286 264/305/286
f 8/320/287 263/293/287 278/317/287
f 256/294/288 272/321/288 257/298/288
f 268/312/289 284/322/289 269/314/289
f 276/313/290 292/323/290 277/315/290
f 270/316/291 284/322/291 285/324/291
f 278/317/292 292/323/292 293/325/292
f 271/318/293 285/324/293 286/326/293
f 264/305/294 1/327/294 279/328/294
f 8/329/295 278/317/295 293/325/295
f 271/318/296 287/330/296 272/321/296
f 265/306/297 279/328/297 280/331/297
f 272/321/298 288/332/298 273/307/298
f 265/306/299 281/333/299 266/308/299
f 274/309/300 288/332/300 289/334/300
f 266/308/301 282/335/301 267/310/301
f 274/309/302 290/336/302 275/311/302
f 268/312/303 282/335/303 283/337/303
f 276/313/304 290/336/304 291/338/304
f 287/330/305 303/339/305 288/332/305
f 280/331/306 296/340/306 281/333/306
f 289/334/307 303/339/307 304/341/307
f 281/333/308 297/342/308 282/335/308
f 289/334/309 305/343/309 290/336/309
f 283/337/310 297/342/310 298/344/310
f 291/338/311 305/343/311 306/345/311
f 283/337/312 299/346/312 284/322/312
f 291/338/313 307/347/313 292/323/313
f 285/324/314 299/346/314 300/348/314
f 293/325/315 307/347/315 308/349/315
f 286/326/316 300/348/316 301/350/316
f 279/328/317 1/351/317 294/352/317
f 8/353/318 293/325/318 308/349/318
f 286/326/319 302/354/319 287/330/319
f 279/328/320 295/355/320 280/331/320
f 306/345/321 322/356/321 307/347/321
f 300/348/322 314/357/322 315/358/322
f 307/347/323 323/359/323 308/349/323
f 301/350/324 315/358/324 316/360/324
f 294/352/325 1/361/325 309/362/325
f 8/363/326 308/349/326 323/359/326
f 301/350/327 317/364/327 302/354/327
f 294/352/328 310/365/328 295/355/328
f 302/354/329 318/366/329 303/339/329
f 295/355/330 311/367/330 296/340/330
f 304/341/331 318/366/331 319/368/331
f 296/340/332 312/369/332 297/342/332
f 304/341/333 320/370/333 305/343/333
f 298/344/334 312/369/334 313/371/334
f 306/345/335 320/370/335 321/372/335
f 298/344/336 314/357/336 299/346/336
f 310/365/337 326/373/337 311/367/337
f 319/368/338 333/374/338 334/375/338
f 311/367/339 327/376/339 312/369/339
f 319/368/340 335/377/340 320/370/340
f 312/369/341 328/378/341 313/371/341
f 321/372/342 335/377/342 336/379/342
f 313/371/343 329/380/343 314/357/343
f 321/372/344 337/381/344 322/356/344
f 315/358/345 329/380/345 330/382/345
f 322/356/346 338/383/346 323/359/346
f 316/360/347 330/382/347 331/384/347
f 309/362/348 1/385/348 324/386/348
f 8/387/349 323/359/349 338/383/349
f 316/360/350 332/388/350 317/364/350
f 309/362/351 325/389/351 310/365/351
f 317/364/352 333/374/352 318/366/352
f 330/382/353 344/390/353 345/391/353
f 337/381/354 353/392/354 338/383/354
f 331/384/355 345/391/355 346/393/355
f 324/386/356 1/394/356 339/395/356
f 8/396/357 338/383/357 353/392/357
f 331/384/358 347/397/358 332/388/358
f 324/386/359 340/398/359 325/389/359
f 332/388/360 348/399/360 333/374/360
f 325/389/361 341/400/361 326/373/361
f 334/375/362 348/399/362 349/401/362
f 326/373/363 342/402/363 327/376/363
f 334/375/364 350/403/364 335/377/364
f 328/378/365 342/402/365 343/404/365
f 336/379/366 350/403/366 351/405/366
f 328/378/367 344/390/367 329/380/367
f 336/379/368 352/406/368 337/381/368
f 349/401/369 363/407/369 364/408/369
f 341/400/370 357/409/370 342/402/370
f 349/401/371 365/410/371 350/403/371
f 343/404/372 357/409/372 358/411/372
f 351/405/373 365/410/373 366/412/373
f 343/404/374 359/413/374 344/390/374
f 351/405/375 367/414/375 352/406/375
f 345/391/376 359/413/376 360/415/376
f 352/406/377 368/416/377 353/392/377
f 346/393/378 360/415/378 361/417/378
f 339/395/379 1/418/379 354/419/379
f 8/420/380 353/392/380 368/416/380
f 346/393/381 362/421/381 347/397/381
f 339/395/382 355/422/382 340/398/382
f 347/397/383 363/407/383 348/399/383
f 341/400/384 355/422/384 356/423/384
f 367/424/385 383/425/385 368/426/385
f 361/427/386 375/428/386 376/429/386
f 354/430/387 1/431/387 369/432/387
f 8/433/388 368/426/388 383/425/388
f 361/427/389 377/434/389 362/435/389
f 354/430/390 370/436/390 355/437/390
f 362/435/391 378/438/391 363/439/391
f 356/440/392 370/436/392 371/441/392
f 364/442/393 378/438/393 379/443/393
f 356/440/394 372/444/394 357/445/394
f 364/442/395 380/446/395 365/447/395
f 358/448/396 372/444/396 373/449/396
f 366/450/397 380/446/397 381/451/397
f 358/448/398 374/452/398 359/453/398
f 366/450/399 382/454/399 367/424/399
f 360/455/400 374/452/400 375/428/400
f 379/443/401 395/456/401 380/446/401
f 373/449/402 387/457/402 388/458/402
f 381/451/403 395/456/403 396/459/403
f 373/449/404 389/460/404 374/452/404
f 381/451/405 397/461/405 382/454/405
f 375/428/406 389/460/406 390/462/406
f 382/454/407 398/463/407 383/425/407
f 376/429/408 390/462/408 391/464/408
f 369/432/409 1/465/409 384/466/409
f 8/467/410 383/425/410 398/463/410
f 376/429/411 392/468/411 377/434/411
f 369/432/412 385/469/412 370/436/412
f 377/434/413 393/470/413 378/438/413
f 371/441/414 385/469/414 386/471/414
f 379/443/415 393/470/415 394/472/415
f 371/441/416 387/457/416 372/444/416
f 384/466/417 1/473/417 399/474/417
f 8/475/418 398/463/418 413/476/418
f 391/464/419 407/477/419 392/468/419
f 385/469/420 399/474/420 400/478/420
f 392/468/421 408/479/421 393/470/421
f 385/469/422 401/480/422 386/471/422
f 394/472/423 408/479/423 409/481/423
f 386/471/424 402/482/424 387/457/424
f 394/472/425 410/483/425 395/456/425
f 388/458/426 402/482/426 403/484/426
f 396/459/427 410/483/427 411/485/427
f 388/458/428 404/486/428 389/460/428
f 397/461/429 411/485/429 412/487/429
f 390/462/430 404/486/430 405/488/430
f 397/461/431 413/476/431 398/463/431
f 391/464/432 405/488/432 406/489/432
f 403/484/433 417/490/433 418/491/433
f 411/485/434 425/492/434 426/493/434
f 403/484/435 419/494/435 404/486/435
f 411/485/436 427/495/436 412/487/436
f 405/488/437 419/494/437 420/496/437
f 412/487/438 428/497/438 413/476/438
f 406/489/439 420/496/439 421/498/439
f 399/474/440 1/499/440 414/500/440
f 8/501/441 413/476/441 428/497/441
f 406/489/442 422/502/442 407/477/442
f 399/474/443 415/503/443 400/478/443
f 407/477/444 423/504/444 408/479/444
f 401/480/445 415/503/445 416/505/445
f 409/481/446 423/504/446 424/506/446
f 401/480/447 417/490/447 402/482/447
f 409/481/448 425/492/448 410/483/448
f 421/498/449 437/507/449 422/502/449
f 414/500/450 430/508/450 415/503/450
f 422/502/451 438/509/451 423/504/451
f 416/505/452 430/508/452 431/510/452
f 424/506/453 438/509/453 439/511/453
f 416/505/454 432/512/454 417/490/454
f 424/506/455 440/513/455 425/492/455
f 418/491/456 432/512/456 433/514/456
f 426/493/457 440/513/457 441/515/457
f 418/491/458 434/516/458 419/494/458
f 426/493/459 442/517/459 427/495/459
f 420/496/460 434/516/460 435/518/460
f 427/495/461 443/519/461 428/497/461
f 421/498/462 435/518/462 436/520/462
f 414/500/463 1/521/463 429/522/463
f 8/523/464 428/497/464 443/519/464
f 441/515/465 455/524/465 456/525/465
f 433/514/466 449/526/466 434/516/466
f 441/515/467 457/527/467 442/517/467
f 435/518/468 449/526/468 450/528/468
f 442/517/469 458/529/469 443/519/469
f 436/520/470 450/528/470 451/530/470
f 429/522/471 1/531/471 444/532/471
f 8/533/472 443/519/472 458/529/472
f 436/520/473 452/534/473 437/507/473
f 430/508/474 444/532/474 445/535/474
f 437/507/475 453/536/475 438/509/475
f 430/508/476 446/537/476 431/510/476
f 439/511/477 453/536/477 454/538/477
f 431/510/478 447/539/478 432/512/478
f 439/511/479 455/524/479 440/513/479
f 433/514/480 447/539/480 448/540/480
f 444/532/481 460/541/481 445/535/481
f 452/534/482 468/542/482 453/536/482
f 446/537/483 460/541/483 461/543/483
f 454/538/484 468/542/484 469/544/484
f 446/537/485 462/545/485 447/539/485
f 454/538/486 470/546/486 455/524/486
f 448/540/487 462/545/487 463/547/487
f 456/525/488 470/546/488 471/548/488
f 448/540/489 464/549/489 449/526/489
f 456/525/490 472/550/490 457/527/490
f 450/528/491 464/549/491 465/551/491
f 458/529/492 472/550/492 473/552/492
f 451/530/493 465/551/493 466/553/493
f 444/532/494 1/554/494 459/555/494
f 8/556/495 458/529/495 473/552/495
f 451/530/496 467/557/496 452/534/496
f 464/549/497 3/32/497 477/4/497
f 471/548/498 481/8/498 472/550/498
f 465/551/499 477/4/499 4/9/499
f 472/550/500 482/12/500 473/552/500
f 466/553/501 4/9/501 5/14/501
f 459/555/502 1/558/502 474/15/502
f 8/559/503 473/552/503 482/12/503
f 466/553/504 6/20/504 467/557/504
f 460/541/505 474/15/505 475/21/505
f 467/557/506 478/24/506 468/542/506
f 461/543/507 475/21/507 2/25/507
f 468/542/508 7/28/508 469/544/508
f 462/545/509 2/25/509 476/29/509
f 469/544/510 479/1/510 470/546/510
f 463/547/511 476/29/511 3/32/511
f 471/548/512 479/1/512 480/3/512
f 479/1/1 20/31/1 21/2/1
f 477/4/2 3/32/2 13/5/2
f 480/3/3 21/2/3 22/7/3
f 4/9/4 477/4/4 14/6/4
f 481/8/5 22/7/5 23/11/5
f 4/9/513 15/10/513 16/13/513
f 5/14/514 16/13/514 17/19/514
f 475/21/10 474/15/10 9/17/10
f 6/20/11 17/19/11 18/23/11
f 2/25/12 475/21/12 10/22/12
f 478/24/13 18/23/13 19/27/13
f 476/29/14 2/25/14 11/26/14
f 7/28/15 19/27/15 20/31/15
f 3/32/16 476/29/16 12/30/16
f 19/27/17 34/48/17 35/33/17
f 12/30/18 27/49/18 28/34/18
f 21/2/19 20/31/19 35/33/19
f 13/5/20 28/34/20 29/36/20
f 22/7/21 21/2/21 36/35/21
f 15/10/22 14/6/22 29/36/22
f 22/7/23 37/37/23 38/39/23
f 15/10/24 30/38/24 31/40/24
f 16/13/27 31/40/27 32/44/27
f 9/17/28 24/42/28 25/45/28
f 17/19/29 32/44/29 33/46/29
f 10/22/30 25/45/30 26/47/30
f 18/23/31 33/46/31 34/48/31
f 11/26/32 26/47/32 27/49/32
f 32/44/35 31/40/35 46/54/35
f 24/42/36 39/51/36 40/56/36
f 32/44/37 47/55/37 48/57/37
f 25/45/515 40/56/515 41/58/515
f 34/48/39 33/46/39 48/57/39
f 26/47/40 41/58/40 42/60/40
f 35/33/41 34/48/41 49/59/41
f 27/49/42 42/60/42 43/62/42
f 36/35/43 35/33/43 50/61/43
f 28/34/44 43/62/44 44/64/44
f 36/35/516 51/63/516 52/65/516
f 29/36/46 44/64/46 45/66/46
f 37/37/47 52/65/47 53/53/47
f 30/38/48 45/66/48 46/54/48
f 42/60/49 57/82/49 58/67/49
f 50/61/50 65/83/50 66/68/50
f 43/62/51 58/67/51 59/69/51
f 51/63/52 66/68/52 67/70/52
f 45/66/53 44/64/53 59/69/53
f 52/65/54 67/70/54 68/72/54
f 46/54/55 45/66/55 60/71/55
f 46/54/58 61/73/58 62/77/58
f 39/51/59 54/75/59 55/78/59
f 47/55/60 62/77/60 63/79/60
f 40/56/61 55/78/61 56/80/61
f 49/59/62 48/57/62 63/79/62
f 41/58/63 56/80/63 57/82/63
f 49/59/64 64/81/64 65/83/64
f 61/73/65 76/97/65 77/84/65
f 54/75/66 69/99/66 70/85/66
f 62/77/67 77/84/67 78/86/67
f 55/78/68 70/85/68 71/87/68
f 64/81/69 63/79/69 78/86/69
f 56/80/70 71/87/70 72/89/70
f 64/81/71 79/88/71 80/90/71
f 58/67/72 57/82/72 72/89/72
f 65/83/73 80/90/73 81/92/73
f 58/67/74 73/91/74 74/93/74
f 67/70/75 66/68/75 81/92/75
f 60/71/76 59/69/76 74/93/76
f 67/70/517 82/94/517 83/96/517
f 61/73/78 60/71/78 75/95/78
f 80/90/81 95/116/81 96/101/81
f 73/91/82 88/117/82 89/102/82
f 81/92/83 96/101/83 97/103/83
f 75/95/84 74/93/84 89/102/84
f 83/96/85 82/94/85 97/103/85
f 76/97/86 75/95/86 90/104/86
f 76/97/89 91/106/89 92/110/89
f 69/99/90 84/108/90 85/111/90
f 77/84/91 92/110/91 93/112/91
f 70/85/92 85/111/92 86/113/92
f 79/88/93 78/86/93 93/112/93
f 71/87/94 86/113/94 87/115/94
f 79/88/95 94/114/95 95/116/95
f 73/91/96 72/89/96 87/115/96
f 92/110/97 107/133/97 108/118/97
f 85/111/98 100/134/98 101/119/98
f 94/114/99 93/112/99 108/118/99
f 86/113/100 101/119/100 102/121/100
f 94/114/101 109/120/101 110/122/101
f 88/117/102 87/115/102 102/121/102
f 96/101/103 95/116/103 110/122/103
f 88/117/104 103/123/104 104/125/104
f 97/103/105 96/101/105 111/124/105
f 90/104/106 89/102/106 104/125/106
f 97/103/107 112/126/107 113/128/107
f 91/106/108 90/104/108 105/127/108
f 91/106/111 106/129/111 107/133/111
f 85/111/112 84/108/112 99/131/112
f 111/124/113 126/151/113 127/135/113
f 105/127/114 104/125/114 119/136/114
f 112/126/115 127/135/115 128/138/115
f 106/129/116 105/127/116 120/137/116
f 106/129/119 121/139/119 122/143/119
f 100/134/120 99/131/120 114/141/120
f 107/133/121 122/143/121 123/145/121
f 100/134/122 115/144/122 116/146/122
f 109/120/123 108/118/123 123/145/123
f 101/119/124 116/146/124 117/148/124
f 109/120/125 124/147/125 125/149/125
f 103/123/126 102/121/126 117/148/126
f 111/124/127 110/122/127 125/149/127
f 103/123/128 118/150/128 119/136/128
f 115/144/129 130/168/129 131/152/129
f 124/147/130 123/145/130 138/153/130
f 116/146/131 131/152/131 132/155/131
f 124/147/132 139/154/132 140/156/132
f 118/150/133 117/148/133 132/155/133
f 126/151/134 125/149/134 140/156/134
f 118/150/135 133/157/135 134/159/135
f 126/151/136 141/158/136 142/160/136
f 120/137/137 119/136/137 134/159/137
f 127/135/138 142/160/138 143/162/138
f 121/139/139 120/137/139 135/161/139
f 121/139/142 136/163/142 137/167/142
f 114/141/143 129/165/143 130/168/143
f 122/143/144 137/167/144 138/153/144
f 135/161/145 134/159/145 149/169/145
f 143/162/146 142/160/146 157/171/146
f 136/163/147 135/161/147 150/170/147
f 136/163/150 151/173/150 152/177/150
f 129/165/151 144/175/151 145/178/151
f 137/167/152 152/177/152 153/179/152
f 131/152/153 130/168/153 145/178/153
f 139/154/154 138/153/154 153/179/154
f 131/152/155 146/180/155 147/182/155
f 139/154/156 154/181/156 155/183/156
f 133/157/157 132/155/157 147/182/157
f 141/158/158 140/156/158 155/183/158
f 133/157/159 148/184/159 149/169/159
f 141/158/160 156/185/160 157/171/160
f 154/181/161 153/179/161 168/186/161
f 146/180/162 161/202/162 162/188/162
f 154/181/163 169/187/163 170/189/163
f 148/184/164 147/182/164 162/188/164
f 156/185/165 155/183/165 170/189/165
f 148/184/166 163/190/166 164/192/166
f 156/185/518 171/191/518 172/193/518
f 150/170/168 149/169/168 164/192/168
f 157/171/169 172/193/169 173/195/169
f 151/173/170 150/170/170 165/194/170
f 151/173/173 166/196/173 167/200/173
f 144/175/174 159/198/174 160/201/174
f 152/177/175 167/200/175 168/186/175
f 146/180/519 145/178/519 160/201/519
f 173/195/177 172/193/177 187/203/177
f 166/196/178 165/194/178 180/205/178
f 166/196/181 181/206/181 182/210/181
f 159/198/182 174/208/182 175/211/182
f 167/200/183 182/210/183 183/212/183
f 160/201/184 175/211/184 176/213/184
f 169/187/185 168/186/185 183/212/185
f 161/202/186 176/213/186 177/215/186
f 169/187/187 184/214/187 185/216/187
f 163/190/188 162/188/188 177/215/188
f 170/189/189 185/216/189 186/218/189
f 163/190/190 178/217/190 179/219/190
f 172/193/191 171/191/191 186/218/191
f 165/194/192 164/192/192 179/219/192
f 176/213/193 191/235/193 192/220/193
f 184/214/194 199/236/194 200/221/194
f 178/217/195 177/215/195 192/220/195
f 186/218/196 185/216/196 200/221/196
f 178/217/197 193/222/197 194/224/197
f 186/218/198 201/223/198 202/225/198
f 180/205/199 179/219/199 194/224/199
f 187/203/200 202/225/200 203/227/200
f 181/206/201 180/205/201 195/226/201
f 181/206/204 196/228/204 197/232/204
f 175/211/205 174/208/205 189/230/205
f 182/210/206 197/232/206 198/234/206
f 176/213/207 175/211/207 190/233/207
f 184/214/208 183/212/208 198/234/208
f 196/228/209 195/226/209 210/237/209
f 196/228/212 211/238/212 212/243/212
f 189/230/213 204/240/213 205/244/213
f 197/232/214 212/243/214 213/245/214
f 190/233/215 205/244/215 206/246/215
f 199/236/216 198/234/216 213/245/216
f 191/235/217 206/246/217 207/248/217
f 199/236/218 214/247/218 215/249/218
f 193/222/219 192/220/219 207/248/219
f 201/223/220 200/221/220 215/249/220
f 193/222/221 208/250/221 209/252/221
f 201/223/520 216/251/520 217/253/520
f 195/226/223 194/224/223 209/252/223
f 202/225/224 217/253/224 218/242/224
f 214/247/225 229/270/225 230/254/225
f 208/250/226 207/248/226 222/255/226
f 216/251/227 215/249/227 230/254/227
f 208/250/228 223/256/228 224/258/228
f 216/251/229 231/257/229 232/259/229
f 210/237/230 209/252/230 224/258/230
f 217/253/231 232/259/231 233/261/231
f 211/238/232 210/237/232 225/260/232
f 211/238/235 226/262/235 227/266/235
f 204/240/236 219/264/236 220/267/236
f 212/243/237 227/266/237 228/268/237
f 205/244/238 220/267/238 221/269/238
f 214/247/239 213/245/239 228/268/239
f 206/246/240 221/269/240 222/255/240
f 226/262/242 241/285/242 242/273/242
f 219/264/243 234/287/243 235/274/243
f 227/266/244 242/273/244 243/275/244
f 221/269/245 220/267/245 235/274/245
f 229/270/246 228/268/246 243/275/246
f 221/269/247 236/276/247 237/278/247
f 229/270/248 244/277/248 245/279/248
f 223/256/249 222/255/249 237/278/249
f 231/257/250 230/254/250 245/279/250
f 223/256/251 238/280/251 239/282/251
f 231/257/252 246/281/252 247/283/252
f 225/260/253 224/258/253 239/282/253
f 233/261/254 232/259/254 247/283/254
f 226/262/255 225/260/255 240/284/255
f 246/281/257 245/279/257 260/288/257
f 238/280/258 253/304/258 254/290/258
f 246/281/259 261/289/259 262/291/259
f 240/284/260 239/282/260 254/290/260
f 247/283/261 262/291/261 263/293/261
f 241/285/521 240/284/521 255/292/521
f 241/285/522 256/294/522 257/298/522
f 234/287/266 249/296/266 250/299/266
f 242/273/267 257/298/267 258/300/267
f 235/274/268 250/299/268 251/301/268
f 244/277/269 243/275/269 258/300/269
f 236/276/270 251/301/270 252/303/270
f 244/277/271 259/302/271 260/288/271
f 238/280/272 237/278/272 252/303/272
f 250/299/273 249/296/273 264/305/273
f 257/298/274 272/321/274 273/307/274
f 250/299/275 265/306/275 266/308/275
f 259/302/276 258/300/276 273/307/276
f 251/301/277 266/308/277 267/310/277
f 259/302/278 274/309/278 275/311/278
f 253/304/279 252/303/279 267/310/279
f 261/289/280 260/288/280 275/311/280
f 253/304/281 268/312/281 269/314/281
f 261/289/282 276/313/282 277/315/282
f 255/292/283 254/290/283 269/314/283
f 262/291/284 277/315/284 278/317/284
f 256/294/285 255/292/285 270/316/285
f 256/294/288 271/318/288 272/321/288
f 268/312/289 283/337/289 284/322/289
f 276/313/523 291/338/523 292/323/523
f 270/316/291 269/314/291 284/322/291
f 278/317/292 277/315/292 292/323/292
f 271/318/293 270/316/293 285/324/293
f 271/318/296 286/326/296 287/330/296
f 265/306/297 264/305/297 279/328/297
f 272/321/298 287/330/298 288/332/298
f 265/306/524 280/331/524 281/333/524
f 274/309/300 273/307/300 288/332/300
f 266/308/301 281/333/301 282/335/301
f 274/309/302 289/334/302 290/336/302
f 268/312/303 267/310/303 282/335/303
f 276/313/304 275/311/304 290/336/304
f 287/330/305 302/354/305 303/339/305
f 280/331/306 295/355/306 296/340/306
f 289/334/307 288/332/307 303/339/307
f 281/333/308 296/340/308 297/342/308
f 289/334/309 304/341/309 305/343/309
f 283/337/310 282/335/310 297/342/310
f 291/338/311 290/336/311 305/343/311
f 283/337/312 298/344/312 299/346/312
f 291/338/313 306/345/313 307/347/313
f 285/324/314 284/322/314 299/346/314
f 293/325/315 292/323/315 307/347/315
f 286/326/316 285/324/316 300/348/316
f 286/326/319 301/350/319 302/354/319
f 279/328/320 294/352/320 295/355/320
f 306/345/321 321/372/321 322/356/321
f 300/348/322 299/346/322 314/357/322
f 307/347/525 322/356/525 323/359/525
f 301/350/324 300/348/324 315/358/324
f 301/350/327 316/360/327 317/364/327
f 294/352/328 309/362/328 310/365/328
f 302/354/329 317/364/329 318/366/329
f 295/355/330 310/365/330 311/367/330
f 304/341/331 303/339/331 318/366/331
f 296/340/332 311/367/332 312/369/332
f 304/341/333 319/368/333 320/370/333
f 298/344/334 297/342/334 312/369/334
f 306/345/335 305/343/335 320/370/335
f 298/344/336 313/371/336 314/357/336
f 310/365/337 325/389/337 326/373/337
f 319/368/338 318/366/338 333/374/338
f 311/367/339 326/373/339 327/376/339
f 319/368/340 334/375/340 335/377/340
f 312/369/341 327/376/341 328/378/341
f 321/372/342 320/370/342 335/377/342
f 313/371/343 328/378/343 329/380/343
f 321/372/526 336/379/526 337/381/526
f 315/358/345 314/357/345 329/380/345
f 322/356/346 337/381/346 338/383/346
f 316/360/347 315/358/347 330/382/347
f 316/360/350 331/384/350 332/388/350
f 309/362/351 324/386/351 325/389/351
f 317/364/352 332/388/352 333/374/352
f 330/382/353 329/380/353 344/390/353
f 337/381/354 352/406/354 353/392/354
f 331/384/355 330/382/355 345/391/355
f 331/384/358 346/393/358 347/397/358
f 324/386/359 339/395/359 340/398/359
f 332/388/360 347/397/360 348/399/360
f 325/389/361 340/398/361 341/400/361
f 334/375/362 333/374/362 348/399/362
f 326/373/363 341/400/363 342/402/363
f 334/375/364 349/401/364 350/403/364
f 328/378/365 327/376/365 342/402/365
f 336/379/366 335/377/366 350/403/366
f 328/378/367 343/404/367 344/390/367
f 336/379/368 351/405/368 352/406/368
f 349/401/369 348/399/369 363/407/369
f 341/400/370 356/423/370 357/409/370
f 349/401/371 364/408/371 365/410/371
f 343/404/372 342/402/372 357/409/372
f 351/405/373 350/403/373 365/410/373
f 343/404/374 358/411/374 359/413/374
f 351/405/375 366/412/375 367/414/375
f 345/391/376 344/390/376 359/413/376
f 352/406/377 367/414/377 368/416/377
f 346/393/527 345/391/527 360/415/527
f 346/393/528 361/417/528 362/421/528
f 339/395/382 354/419/382 355/422/382
f 347/397/383 362/421/383 363/407/383
f 341/400/384 340/398/384 355/422/384
f 367/424/385 382/454/385 383/425/385
f 361/427/529 360/455/529 375/428/529
f 361/427/530 376/429/530 377/434/530
f 354/430/390 369/432/390 370/436/390
f 362/435/391 377/434/391 378/438/391
f 356/440/392 355/437/392 370/436/392
f 364/442/393 363/439/393 378/438/393
f 356/440/394 371/441/394 372/444/394
f 364/442/395 379/443/395 380/446/395
f 358/448/396 357/445/396 372/444/396
f 366/450/397 365/447/397 380/446/397
f 358/448/398 373/449/398 374/452/398
f 366/450/399 381/451/399 382/454/399
f 360/455/400 359/453/400 374/452/400
f 379/443/401 394/472/401 395/456/401
f 373/449/402 372/444/402 387/457/402
f 381/451/403 380/446/403 395/456/403
f 373/449/404 388/458/404 389/460/404
f 381/451/405 396/459/405 397/461/405
f 375/428/406 374/452/406 389/460/406
f 382/454/407 397/461/407 398/463/407
f 376/429/408 375/428/408 390/462/408
f 376/429/411 391/464/411 392/468/411
f 369/432/412 384/466/412 385/469/412
f 377/434/413 392/468/413 393/470/413
f 371/441/414 370/436/414 385/469/414
f 379/443/415 378/438/415 393/470/415
f 371/441/416 386/471/416 387/457/416
f 391/464/419 406/489/419 407/477/419
f 385/469/420 384/466/420 399/474/420
f 392/468/421 407/477/421 408/479/421
f 385/469/422 400/478/422 401/480/422
f 394/472/423 393/470/423 408/479/423
f 386/471/424 401/480/424 402/482/424
f 394/472/425 409/481/425 410/483/425
f 388/458/426 387/457/426 402/482/426
f 396/459/427 395/456/427 410/483/427
f 388/458/428 403/484/428 404/486/428
f 397/461/429 396/459/429 411/485/429
f 390/462/430 389/460/430 404/486/430
f 397/461/431 412/487/431 413/476/431
f 391/464/432 390/462/432 405/488/432
f 403/484/433 402/482/433 417/490/433
f 411/485/434 410/483/434 425/492/434
f 403/484/435 418/491/435 419/494/435
f 411/485/436 426/493/436 427/495/436
f 405/488/437 404/486/437 419/494/437
f 412/487/438 427/495/438 428/497/438
f 406/489/439 405/488/439 420/496/439
f 406/489/442 421/498/442 422/502/442
f 399/474/443 414/500/443 415/503/443
f 407/477/444 422/502/444 423/504/444
f 401/480/445 400/478/445 415/503/445
f 409/481/446 408/479/446 423/504/446
f 401/480/447 416/505/447 417/490/447
f 409/481/448 424/506/448 425/492/448
f 421/498/449 436/520/449 437/507/449
f 414/500/450 429/522/450 430/508/450
f 422/502/451 437/507/451 438/509/451
f 416/505/452 415/503/452 430/508/452
f 424/506/453 423/504/453 438/509/453
f 416/505/454 431/510/454 432/512/454
f 424/506/455 439/511/455 440/513/455
f 418/491/456 417/490/456 432/512/456
f 426/493/457 425/492/457 440/513/457
f 418/491/458 433/514/458 434/516/458
f 426/493/459 441/515/459 442/517/459
f 420/496/460 419/494/460 434/516/460
f 427/495/461 442/517/461 443/519/461
f 421/498/462 420/496/462 435/518/462
f 441/515/465 440/513/465 455/524/465
f 433/514/466 448/540/466 449/526/466
f 441/515/467 456/525/467 457/527/467
f 435/518/468 434/516/468 449/526/468
f 442/517/469 457/527/469 458/529/469
f 436/520/470 435/518/470 450/528/470
f 436/520/473 451/530/473 452/534/473
f 430/508/474 429/522/474 444/532/474
f 437/507/475 452/534/475 453/536/475
f 430/508/476 445/535/476 446/537/476
f 439/511/477 438/509/477 453/536/477
f 431/510/478 446/537/478 447/539/478
f 439/511/479 454/538/479 455/524/479
f 433/514/480 432/512/480 447/539/480
f 444/532/481 459/555/481 460/541/481
f 452/534/482 467/557/482 468/542/482
f 446/537/483 445/535/483 460/541/483
f 454/538/484 453/536/484 468/542/484
f 446/537/485 461/543/485 462/545/485
f 454/538/486 469/544/486 470/546/486
f 448/540/487 447/539/487 462/545/487
f 456/525/488 455/524/488 470/546/488
f 448/540/489 463/547/489 464/549/489
f 456/525/490 471/548/490 472/550/490
f 450/528/491 449/526/491 464/549/491
f 458/529/492 457/527/492 472/550/492
f 451/530/493 450/528/493 465/551/493
f 451/530/496 466/553/496 467/557/496
f 464/549/497 463/547/497 3/32/497
f 471/548/498 480/3/498 481/8/498
f 465/551/499 464/549/499 477/4/499
f 472/550/500 481/8/500 482/12/500
f 466/553/501 465/551/501 4/9/501
f 466/553/504 5/14/504 6/20/504
f 460/541/505 459/555/505 474/15/505
f 467/557/506 6/20/506 478/24/506
f 461/543/507 460/541/507 475/21/507
f 468/542/508 478/24/508 7/28/508
f 462/545/509 461/543/509 2/25/509
f 469/544/510 7/28/510 479/1/510
f 463/547/511 462/545/511 476/29/511
f 471/548/512 470/546/512 479/1/512
